<?xml version="1.0" encoding="utf-8"?>
<!-- Generator: Adobe Illustrator 26.0.3, SVG Export Plug-In . SVG Version: 6.00 Build 0)  -->
<svg version="1.1" baseProfile="tiny" id="Layer_1" xmlns="http://www.w3.org/2000/svg" xmlns:xlink="http://www.w3.org/1999/xlink"
	 x="0px" y="0px" viewBox="0 0 632.32 269.05" overflow="visible" xml:space="preserve">
<g>
	<g>
		<path fill="#1F2220" d="M235.18,180.31c10.5,4,14.57,13.33,6.99,22.55c-26.28,23.33-52.66-24.55-34.18-46.17
			c31.7-54.02,89.22-79.04,87.08-148.86c6.93,69.03-52.4,98.6-83.93,150.94c-17.02,18.97,5.59,62.62,29.87,43.06
			C248.67,193.41,244.66,184.72,235.18,180.31L235.18,180.31z"/>
	</g>
	<g>
		<path fill="#1F2220" d="M295.07,7.82c8.52,78.93-79.38,149.19-153.81,117.58c-25-11.83-49.12-34.71-51.3-63.7
			C89.48,32,113.38,2.46,143.67,0.39c31.14-3.24,62.77,27.97,51.83,59.36c-15.68,46.05-79.74,27.62-65.12-13.88
			c8.4-20.41,40.02-19.52,42.22,4c1.28,14.93-20.44,24.02-27.43,9.18c-4.59-10.4,8.04-19.77,15.88-10.62
			c-7.71-8.62-19.81,0.29-15.23,10.32c6.72,13.63,26.69,4.99,25.26-8.84c-0.76-15.39-21.65-22.08-32.23-11.52
			c-31.87,34.45,34.53,71.1,53.35,20.26c9.97-29.04-19.61-57.55-48.25-54.45c-28.16,2.11-50.4,29.74-50.18,57.34
			c1.86,26.58,23.9,47.79,46.42,59.54c42.96,20.32,96.71,3.07,127.46-31.21C287.94,67.86,295.99,37.29,295.07,7.82z"/>
	</g>
	<g>
		<path fill="#1F2220" d="M295.07,7.82c2.39,27.72-24.67,116.49-63.54,95.16c-13.03-8.09-27.67-20.7-42.19-8.13
			c-14.85,12.95-1.69,38.26-4.9,55.67c-1.29,19.85-38.97,34.96-44.3,10.07c-1.22-6.07,0.07-14.64-8.04-16.02
			c8.19,0.81,7.7,9.67,9.06,15.76c5.29,22.11,39.52,7.59,40.21-10.27c1.83-21.27-13.84-53.84,14.6-63.47
			c20.06-7.36,35.56,19.7,50.77,16.39C276.9,88.85,297.1,40.41,295.07,7.82L295.07,7.82z"/>
	</g>
	<g>
		<path fill="#1F2220" d="M0.45,37.43C-1.3,48.71,5.59,62.14,18.64,58.84c2.07-0.34,3.43-2.34,4.54-4.03
			c6.46-11.17,11.54-29.78,27.73-28.71c10.41,0.57,17.69,8.67,20.74,18.02c3.41,8.63,2.19,18.16,5.86,26.65
			c9.68,21.22,44.29,34.87,62.81,50.16c0,0-1.98,3.38-1.98,3.38c-24.26-11.04-56.19-27.4-83.12-26.55
			c-20.56,1.86-27.49,34.13-5.22,38.4c11.94,1.69,19.03-10.67,9.71-18.99c16.37,15.55-12.29,29.06-21.91,13.2
			c-9.8-14.73,0.42-32.7,17.02-35.51c30.16-1.05,58.36,14.04,85.29,25.94c0,0-1.98,3.38-1.98,3.38
			c-17.12-11.63-34.27-23.04-51.23-34.92c-24.46-15.75-6.8-55.55-36.2-60.39C31.77,27.29,32.15,53.63,18.83,60.2
			C4.94,62.97-1.88,49.48,0.45,37.43L0.45,37.43z"/>
	</g>
	<g>
		<path fill="#1F2220" d="M147.83,1.2c43.08-10.12,74.13,47.31,106.36,40.38c12.55-3.82,30.67-24.45,13.85-33.77
			c-26.25-17.73-38.89,24.98-13.82,21.58c1.07-0.22,2.5-0.68,2.62-1.96c-0.26,2.47-4.24,2.64-6.17,2.65
			c-26.53-3.14-4.89-42.93,19.23-25.06c14.42,6.91,8.15,24.29-1.61,32.45C229.3,71.79,205.81-2.36,147.83,1.2z"/>
	</g>
	<g>
		<path fill="#1F2220" d="M309.63,6.62c3.51,82.89,1.13,162.42-0.86,245.37C305.25,169.1,307.67,89.57,309.63,6.62L309.63,6.62z"/>
	</g>
	<g>
		<path fill="#1F2220" d="M244.98,162.58c35.04,26.45,59.35-67.29,62.12-90.79C309.37,98.2,282.82,193.93,244.98,162.58
			L244.98,162.58z"/>
	</g>
	<g>
		<path fill="#1F2220" d="M275.71,210.02"/>
	</g>
	<g>
		<path fill="#1F2220" d="M298.13,116.77c10.34,21.65,1.05,70.85-22.41,93.25c18.68-25.84,26.31-58.32,21.05-89.77L298.13,116.77z"
			/>
	</g>
	<g>
		<path fill="#1F2220" d="M350.49,116.77"/>
	</g>
	<g>
		<path fill="#1F2220" d="M382.58,181.24c-10.5,4-14.57,13.33-6.99,22.55c26.28,23.33,52.66-24.55,34.18-46.17
			c-31.7-54.02-89.22-79.04-87.08-148.86c-6.93,69.03,52.4,98.6,83.93,150.94c17.02,18.97-5.59,62.62-29.87,43.06
			C369.09,194.34,373.11,185.64,382.58,181.24z"/>
	</g>
	<g>
		<path fill="#1F2220" d="M322.7,8.75c-8.52,78.93,79.38,149.19,153.81,117.58c25-11.83,49.12-34.71,51.3-63.7
			c0.48-29.7-23.43-59.24-53.71-61.31c-31.14-3.24-62.77,27.97-51.83,59.36C437.95,106.73,502,88.3,487.39,46.8
			c-8.4-20.41-40.02-19.52-42.22,4c-1.28,14.93,20.44,24.02,27.43,9.18c4.59-10.4-8.04-19.77-15.88-10.62
			c7.71-8.62,19.81,0.29,15.23,10.32c-6.72,13.63-26.69,4.99-25.26-8.84c0.76-15.39,21.65-22.08,32.23-11.52
			c31.87,34.45-34.53,71.1-53.35,20.26c-9.97-29.04,19.61-57.55,48.25-54.45c28.16,2.11,50.4,29.74,50.18,57.34
			c-1.86,26.58-23.9,47.79-46.42,59.54c-42.96,20.32-96.71,3.07-127.46-31.21C329.82,68.79,321.78,38.22,322.7,8.75z"/>
	</g>
	<g>
		<path fill="#1F2220" d="M322.7,8.75c-2.39,27.72,24.67,116.49,63.54,95.16c13.03-8.09,27.67-20.7,42.19-8.13
			c14.85,12.95,1.69,38.26,4.9,55.67c1.29,19.85,38.97,34.96,44.3,10.07c1.22-6.07-0.07-14.64,8.04-16.02
			c-8.19,0.81-7.7,9.67-9.06,15.76c-5.29,22.11-39.52,7.59-40.21-10.27c-1.83-21.27,13.84-53.84-14.6-63.47
			c-20.06-7.36-35.56,19.7-50.77,16.39C340.87,89.78,320.67,41.34,322.7,8.75L322.7,8.75z"/>
	</g>
	<g>
		<path fill="#1F2220" d="M617.31,38.36c1.75,11.29-5.13,24.71-18.19,21.42c-2.07-0.34-3.43-2.34-4.54-4.03
			c-6.46-11.17-11.54-29.78-27.73-28.71c-10.41,0.57-17.69,8.67-20.74,18.02c-3.41,8.63-2.19,18.16-5.86,26.65
			c-9.68,21.22-44.29,34.87-62.81,50.16c0,0,1.98,3.38,1.98,3.38c24.26-11.04,56.19-27.4,83.12-26.55
			c20.56,1.86,27.49,34.13,5.22,38.4c-11.94,1.69-19.03-10.67-9.71-18.99c-16.37,15.55,12.29,29.06,21.91,13.2
			c9.8-14.73-0.42-32.7-17.02-35.51c-30.16-1.05-58.36,14.04-85.29,25.94c0,0,1.98,3.38,1.98,3.38
			c17.12-11.63,34.27-23.04,51.23-34.92c24.46-15.75,6.8-55.55,36.2-60.39c18.93-1.59,18.54,24.76,31.87,31.32
			C612.83,63.9,619.65,50.41,617.31,38.36L617.31,38.36z"/>
	</g>
	<g>
		<path fill="#1F2220" d="M469.94,2.13c-43.08-10.12-74.13,47.31-106.36,40.38c-12.55-3.82-30.67-24.45-13.85-33.77
			c26.25-17.73,38.89,24.98,13.82,21.58c-1.07-0.22-2.5-0.68-2.62-1.96c0.26,2.47,4.24,2.64,6.17,2.65
			c26.53-3.14,4.89-42.93-19.23-25.06c-14.42,6.91-8.15,24.29,1.61,32.45C388.47,72.72,411.95-1.44,469.94,2.13z"/>
	</g>
	<g>
		<path fill="#1F2220" d="M308.99,252.92"/>
	</g>
	<g>
		<path fill="#1F2220" d="M372.79,163.5c-35.04,26.45-59.35-67.29-62.12-90.79C308.4,99.13,334.95,194.86,372.79,163.5L372.79,163.5
			z"/>
	</g>
	<g>
		<path fill="#1F2220" d="M342.05,210.95"/>
	</g>
	<g>
		<path fill="#1F2220" d="M319.64,117.7c-10.34,21.65-1.05,70.85,22.41,93.25c-18.68-25.84-26.31-58.32-21.05-89.77L319.64,117.7z"
			/>
	</g>
	<g>
		<path fill="#1F2220" d="M267.27,117.7"/>
	</g>
</g>
</svg>
