<?xml version="1.0" encoding="utf-8"?>
<!-- Generator: Adobe Illustrator 26.0.3, SVG Export Plug-In . SVG Version: 6.00 Build 0)  -->
<svg version="1.1" xmlns="http://www.w3.org/2000/svg" xmlns:xlink="http://www.w3.org/1999/xlink" x="0px" y="0px"
	 viewBox="0 0 366.72 235.6" style="enable-background:new 0 0 366.72 235.6;" xml:space="preserve">
<style type="text/css">
	.st0{fill:none;stroke:#FBDC82;stroke-width:6;stroke-linejoin:round;stroke-miterlimit:10;}
	.st1{fill:#BE1E2D;}
	.st2{fill:none;}
</style>
<g id="Layer_3">
	<g>
		<g>
			<path class="st0" d="M112.51,181.42c0.04-0.75,0.06-1.13,0.1-1.89c1.64-1.08,2.79-2.49,3.47-4.24c0.67-1.74,1.11-4.48,1.32-8.27
				c1.2-22.23,2.4-44.46,3.6-66.68c0.21-3.95,0.07-6.74-0.44-8.37c-0.5-1.62-1.52-2.61-3.06-2.95c0.03-0.61,0.05-0.92,0.08-1.54
				c4.56-1.4,6.84-2.13,11.4-3.61c-1.46,27.12-2.93,54.25-4.39,81.37c-0.19,3.55-0.04,5.97,0.46,7.27c0.5,1.3,1.54,1.93,3.12,1.88
				c-0.04,0.67-0.05,1-0.09,1.66C121.85,178.21,118.73,179.29,112.51,181.42z M116.21,177.22c2.83-0.9,4.25-1.36,7.08-2.27
				c-0.32-0.35-0.47-0.53-0.79-0.89c-0.04-0.07-0.09-0.12-0.13-0.15c-0.17-0.2-0.26-0.3-0.43-0.5c-0.3-0.5-0.43-1.28-0.4-2.31
				c0.03-0.52,0.04-0.78,0.07-1.3c0.01-0.26,0.02-0.39,0.04-0.65c1.48-27.34,2.95-54.68,4.43-82.01c-2.32,0.71-3.48,1.06-5.8,1.74
				c0.5,0.75,0.75,1.12,1.26,1.87c0.02,0,0.07,0.07,0.13,0.2c0.17,0.27,0.25,0.4,0.42,0.67c0.21,0.31,0.34,0.79,0.38,1.42
				c0.04,0.63,0.01,1.75-0.08,3.35c-1.33,24.54-2.65,49.09-3.98,73.63c-0.1,1.83-0.21,2.98-0.33,3.45
				c-0.12,0.48-0.43,1.16-0.95,2.07c-0.08,0.11-0.11,0.19-0.12,0.23C116.7,176.35,116.54,176.64,116.21,177.22z"/>
			<path class="st0" d="M149.87,163.59c-3.11,4.69-6.33,7.7-9.67,8.88c-2.67,0.94-4.75,0.58-6.22-1.2c-1.47-1.79-2.1-4.66-1.89-8.52
				c0.3-5.49,2.08-10.2,5.35-13.95c3.26-3.74,7.81-6.31,13.66-8.03c0.04-0.65,0.05-0.97,0.09-1.63c0.02-0.33,0.03-0.49,0.04-0.82
				c0.16-3.04,0.22-5.54,0.16-7.47c-0.06-1.94-0.2-3.68-0.44-4.74c-0.28-1.23-0.72-2.18-1.32-2.86c-0.6-0.68-1.28-0.97-2.02-0.85
				c-1.1,0.17-2,0.99-2.71,2.47c-0.71,1.48-1.21,3.71-1.54,6.61c-0.33,2.86-0.72,4.4-1.2,5.38c-0.47,0.98-1.22,1.57-2.25,1.74
				c-0.8,0.13-1.44-0.25-1.92-1.15c-0.49-0.9-0.68-2.15-0.6-3.72c0.11-2.12,0.67-4.39,1.63-6.41c0.97-2.02,2.25-3.68,3.84-4.98
				c1.59-1.31,3.3-2.09,5.12-2.36c2.36-0.35,4.38,0.23,6.07,1.71c1.68,1.48,2.88,3.68,3.58,6.58c0.38,1.49,0.63,2.96,0.74,4.69
				c0.1,1.74,0.07,4.15-0.09,7.21c-0.35,6.52-0.52,9.69-0.86,15.84c-0.16,2.95,0.02,4.91,0.53,5.93c0.51,1.02,1.56,1.45,3.15,1.29
				c-0.03,0.55-0.04,0.82-0.07,1.36c-4.57,1.6-6.85,2.4-11.42,4C149.71,166.6,149.76,165.6,149.87,163.59z M141.85,170.35
				c-3.95,0.07-5.76-2.91-5.44-8.88c0.21-3.88,1.32-7.48,3.33-10.67c0.89-1.41,2.56-3.33,5.01-5.73c-2.89,1.53-5.16,3.24-6.82,5.18
				c-2.83,3.38-4.37,7.48-4.62,12.11c-0.18,3.35,0.39,5.84,1.71,7.41c1.32,1.57,3.12,1.91,5.39,1.14
				C140.94,170.72,141.42,170.54,141.85,170.35z M144.41,122.93c-1.68,1.06-3.07,2.57-4.16,4.56c-1.09,1.99-1.71,4.21-1.82,6.27
				c-0.04,0.79,0.03,1.39,0.22,1.81c0.19,0.42,0.45,0.6,0.81,0.55c0.33-0.05,0.58-0.26,0.77-0.64c0.18-0.37,0.36-1.1,0.54-2.18
				c0.38-2.33,0.82-4.43,1.3-5.79C142.54,126.16,143.32,124.63,144.41,122.93z M150,161.2c0.39-7.22,0.59-10.94,1-18.58
				c-2.31,1.11-4.32,2.52-6.02,4.26c-1.71,1.74-3.05,3.77-4.04,6.1c-0.98,2.33-1.55,4.78-1.68,7.31c-0.14,2.57,0.21,4.56,1.05,5.93
				c0.84,1.37,1.97,1.79,3.39,1.33C145.46,166.96,147.56,164.82,150,161.2z M150.94,165.83c2.1-0.71,3.15-1.06,5.25-1.77
				c-0.31-0.26-0.46-0.4-0.76-0.66c-0.07-0.08-0.11-0.12-0.13-0.11c-0.17-0.15-0.26-0.22-0.43-0.37c-0.33-0.41-0.47-1.02-0.42-1.84
				c0.02-0.42,0.03-0.64,0.06-1.06c0-0.21,0-0.31-0.01-0.52c0.39-7.27,0.6-11.03,1.02-18.79c0.29-5.29,0.14-9.11-0.47-11.93
				c-0.81-3.75-2.35-6.1-4.53-6.9c1.39,1.78,2.09,5.12,2.13,8.94c0.02,2.34-0.11,6-0.38,10.84
				C151.7,151.69,151.44,156.53,150.94,165.83z"/>
			<path class="st0" d="M177.43,126.43c1.61-3.22,3.14-5.95,4.58-8.18c1.44-2.23,2.81-3.91,4.1-5.03c1.29-1.12,2.66-1.88,4.13-2.29
				c1.79-0.5,3.42-0.28,4.89,0.62c1.47,0.89,2.55,2.33,3.27,4.27c0.8,2.16,1.11,5.26,0.89,9.3c-0.37,6.94-0.56,10.33-0.92,16.95
				c-0.15,2.76,0.04,4.59,0.55,5.52c0.52,0.93,1.57,1.31,3.16,1.12c-0.03,0.53-0.04,0.79-0.07,1.32c-6.23,2.23-9.35,3.35-15.58,5.57
				c0.03-0.52,0.04-0.77,0.07-1.29c1.63-0.96,2.76-2.11,3.41-3.46c0.64-1.35,1.04-3.37,1.18-6.13c0.36-6.74,0.55-10.23,0.94-17.42
				c0.21-3.87,0.19-6.55-0.06-7.99c-0.27-1.58-0.76-2.75-1.48-3.48c-0.73-0.73-1.63-0.94-2.72-0.63c-1.51,0.44-3.02,1.69-4.54,3.76
				c-1.52,2.07-3.51,5.59-5.98,10.48c-0.47,8.73-0.69,12.86-1.12,20.66c-0.15,2.78,0.04,4.59,0.56,5.51
				c0.52,0.92,1.57,1.28,3.16,1.08c-0.03,0.52-0.04,0.77-0.07,1.28c-6.23,2.23-9.35,3.32-15.58,5.5c0.03-0.53,0.04-0.8,0.07-1.34
				c1.63-0.95,2.77-2.09,3.42-3.43c0.65-1.34,1.05-3.4,1.21-6.27c0.46-8.6,0.71-13.16,1.23-22.77c0.17-3.2,0-5.52-0.52-6.82
				c-0.52-1.3-1.56-1.99-3.11-2.05c0.03-0.55,0.04-0.83,0.07-1.39c4.59-1.93,6.88-2.81,11.47-4.89
				C177.81,119.41,177.68,121.79,177.43,126.43z M167.88,160.07c2.84-0.97,4.25-1.42,7.09-2.44c-0.32-0.22-0.48-0.34-0.8-0.57
				c-0.04-0.05-0.09-0.08-0.13-0.1c-0.17-0.13-0.26-0.2-0.43-0.33c-0.31-0.34-0.45-0.9-0.43-1.68c0.02-0.39,0.03-0.59,0.05-0.99
				c0.22-4.07,0.33-6.17,0.57-10.5c0.12-2.2,0.18-3.31,0.3-5.57c0.41-7.66,0.63-11.66,1.09-20.17c-2.34,1-3.51,1.49-5.84,2.48
				c0.51,0.57,0.77,0.85,1.28,1.4c0.02-0.01,0.07,0.04,0.13,0.15c0.17,0.2,0.26,0.3,0.43,0.5c0.22,0.22,0.35,0.6,0.39,1.13
				c0.04,0.53,0.02,1.49-0.05,2.8c-0.51,9.45-1.02,18.91-1.53,28.36c-0.07,1.37-0.17,2.23-0.28,2.59c-0.11,0.36-0.42,0.9-0.92,1.62
				c-0.07,0.09-0.11,0.15-0.11,0.18C168.36,159.39,168.2,159.62,167.88,160.07z M190.09,152.21c2.83-1.02,4.24-1.53,7.06-2.55
				c-0.31-0.23-0.46-0.35-0.77-0.58c-0.07-0.07-0.11-0.1-0.13-0.1c-0.17-0.13-0.26-0.19-0.44-0.32c-0.33-0.36-0.47-0.92-0.43-1.67
				c0.02-0.39,0.03-0.59,0.05-0.99c0-0.19-0.01-0.29-0.01-0.48c0.41-7.56,0.62-11.46,1.05-19.5c0.14-2.66,0.14-4.76-0.01-6.25
				c-0.15-1.5-0.48-2.77-0.98-3.81c-1.3-2.63-3.11-3.68-5.44-3.01c-0.24,0.07-0.78,0.3-1.64,0.69c1.44-0.07,2.54,0.29,3.28,1.09
				c0.75,0.8,1.24,2.16,1.47,4.08c0.23,1.92,0.26,4.58,0.07,8.01c-0.44,8.24-0.66,12.21-1.07,19.88c-0.07,1.35-0.16,2.2-0.26,2.55
				c-0.1,0.36-0.4,0.9-0.91,1.62c-0.05,0.08-0.08,0.12-0.09,0.13c-0.01,0-0.03,0.03-0.06,0.07
				C190.55,151.53,190.4,151.76,190.09,152.21z"/>
			<path class="st0" d="M214.31,122.71c-0.02,0.44-0.04,0.67-0.06,1.11c-0.22,4,0.01,7.34,0.68,10.02c0.67,2.69,1.72,4.56,3.16,5.65
				c1.44,1.08,3.19,1.26,5.25,0.52c1.09-0.39,2.2-1.05,3.33-1.97c1.13-0.92,2.26-2.07,3.39-3.43c1.13-1.37,2.42-3.19,3.86-5.45
				c0.25,0.44,0.38,0.66,0.64,1.1c-2.62,4.23-5.06,7.51-7.33,9.75c-2.27,2.24-4.75,3.84-7.45,4.8c-2.82,1-5.29,1.03-7.44,0.11
				c-2.14-0.92-3.75-2.72-4.81-5.43c-1.06-2.71-1.48-6.07-1.26-10.1c0.23-4.23,1.12-8.41,2.67-12.44c1.55-4.03,3.56-7.45,6.01-10.17
				c2.46-2.72,5.13-4.46,8.03-5.29c2.47-0.71,4.71-0.66,6.69,0.09c1.99,0.75,3.49,2.18,4.52,4.25c1.06,2.13,1.6,5.22,1.51,9.38
				C227.15,118.12,222.87,119.66,214.31,122.71z M221.37,142.74c-1.66,0.3-2.99,0.33-3.97,0.1c-0.99-0.23-1.93-0.81-2.83-1.72
				c-1.34-1.34-2.34-3.38-2.97-6.14c-0.64-2.76-0.86-5.96-0.66-9.61c0.14-2.53,0.43-4.93,0.89-7.19c0.46-2.26,1.09-4.36,1.91-6.29
				c0.81-1.94,1.87-3.86,3.18-5.75c-2.8,2.91-5.02,6.4-6.65,10.37c-1.63,3.98-2.56,8.14-2.79,12.4c-0.2,3.65,0.2,6.73,1.21,9.26
				c1,2.52,2.49,4.23,4.47,5.14c1.98,0.91,4.22,0.93,6.73,0.03C220.45,143.12,220.94,142.93,221.37,142.74z M214.41,120.95
				c5.66-2,8.49-3,14.15-4.96c0.21-4.39,0.05-7.41-0.45-9.1c-0.46-1.55-1.16-2.66-2.12-3.3c-0.96-0.65-2.07-0.79-3.32-0.42
				C218.15,104.5,215.39,110.47,214.41,120.95z M232.85,114.52c0.06-2.36-0.15-4.39-0.61-6.12c-0.46-1.73-1.16-3.09-2.09-4.1
				c-0.93-1.01-2.07-1.6-3.4-1.77c1.29,1.07,2.18,2.5,2.67,4.32c0.49,1.82,0.66,4.26,0.49,7.34c-0.03,0.52-0.06,0.98-0.11,1.38
				C231.02,115.14,231.63,114.93,232.85,114.52z"/>
			<path class="st0" d="M261.26,120.75c-2.18,3.94-4.24,7.05-6.17,9.2c-1.93,2.15-3.97,3.64-6.12,4.4
				c-1.89,0.67-3.56,0.68-4.99,0.01c-1.44-0.67-2.53-1.91-3.26-3.7c-0.76-1.85-1.03-4.78-0.82-8.71c0.34-6.22,0.5-9.25,0.82-15.17
				c0.14-2.58-0.06-4.29-0.59-5.22c-0.53-0.92-1.58-1.32-3.14-1.17c0.02-0.4,0.03-0.61,0.05-1.01c4.59-1.96,6.88-2.82,11.45-4.5
				c-0.5,9.2-0.78,14.46-1.35,25.04c-0.19,3.55-0.15,5.98,0.1,7.21c0.28,1.38,0.77,2.39,1.49,2.96c0.72,0.58,1.59,0.69,2.61,0.34
				c1.42-0.49,2.84-1.59,4.27-3.28c1.42-1.68,3.15-4.32,5.17-7.79c0.25-0.43,0.37-0.64,0.61-1.06c0.39-7.13,0.57-10.62,0.94-17.47
				c0.13-2.47-0.07-4.01-0.61-4.81c-0.54-0.8-1.58-1.17-3.14-1.08c0.02-0.35,0.03-0.52,0.05-0.87c4.57-1.57,6.85-2.3,11.4-3.63
				c-0.51,9.47-0.85,15.72-1.48,27.35c-0.14,2.5,0.06,4.2,0.58,5.07c0.52,0.87,1.58,1.21,3.16,1.01c-0.03,0.48-0.04,0.72-0.07,1.21
				c-4.57,1.6-6.85,2.4-11.42,4C261,125.74,261.09,124.07,261.26,120.75z M245.61,97.32c-2.33,0.91-3.5,1.38-5.83,2.34
				c0.54,0.35,0.81,0.53,1.34,0.88c0.02-0.01,0.04,0,0.05,0.01c0.01,0.01,0.04,0.04,0.08,0.09c0.17,0.13,0.26,0.19,0.44,0.32
				c0.2,0.12,0.33,0.35,0.38,0.69c0.05,0.34,0.05,1.06-0.02,2.23c-0.37,6.89-0.56,10.44-0.96,17.74c-0.13,2.32-0.08,4.21,0.15,5.65
				c0.22,1.44,0.64,2.71,1.26,3.67c0.74,1.13,1.69,1.92,2.68,2.33c0.99,0.41,1.97,0.45,2.94,0.1c0.07-0.02,0.42-0.18,1.03-0.46
				c-1.4,0.2-2.47-0.06-3.21-0.77s-1.23-1.97-1.48-3.75c-0.25-1.79-0.29-4.31-0.12-7.52C244.88,111.01,245.14,106.08,245.61,97.32z
				 M262.13,126.61c2.1-0.72,3.15-1.07,5.25-1.79c-0.31-0.22-0.46-0.33-0.77-0.55c-0.07-0.07-0.11-0.1-0.13-0.09
				c-0.17-0.12-0.26-0.18-0.44-0.31c-0.33-0.34-0.48-0.87-0.44-1.58c0.02-0.37,0.03-0.55,0.05-0.92c0-0.18-0.01-0.27-0.01-0.45
				c0.51-9.46,1.02-18.93,1.53-28.39c-2.32,0.71-3.48,1.09-5.81,1.86c0.54,0.31,0.81,0.47,1.35,0.78c0.02-0.01,0.04,0,0.05,0.01
				c0.01,0.01,0.04,0.04,0.08,0.08c0.17,0.11,0.26,0.17,0.44,0.29c0.2,0.11,0.33,0.31,0.38,0.6c0.05,0.29,0.06,0.86,0,1.98
				C263.16,107.62,262.64,117.11,262.13,126.61z"/>
			<path class="st0" d="M286.78,94.95c1.51-3.11,2.82-4.86,3.96-5.98c1.14-1.12,2.42-1.73,3.84-1.84c1.77-0.13,3.21,0.47,4.32,1.78
				c1.11,1.31,1.61,3,1.5,5.05c-0.07,1.31-0.4,2.33-0.99,3.11c-0.59,0.77-1.38,1.23-2.39,1.35c-0.86,0.11-1.55-0.1-2.05-0.65
				c-0.5-0.54-0.73-1.3-0.68-2.26c0.02-0.44,0.11-0.94,0.25-1.49c0.16-0.57,0.24-0.88,0.39-1.41c0.23-0.81,0.36-1.53,0.39-2.15
				c0.03-0.62-0.11-1.09-0.43-1.42c-0.32-0.33-0.76-0.47-1.32-0.43c-0.65,0.05-1.31,0.35-1.96,0.9c-0.66,0.55-1.37,1.4-2.14,2.57
				c-0.77,1.17-1.72,2.97-2.85,5.36c-0.33,6.09-0.49,9.16-0.83,15.35c-0.12,2.22,0.14,3.7,0.79,4.41c0.65,0.71,1.89,0.9,3.74,0.58
				c-0.02,0.42-0.03,0.62-0.06,1.04c-6.53,2.26-9.79,3.4-16.32,5.68c0.03-0.48,0.04-0.72,0.06-1.2c1.63-0.9,2.76-1.95,3.41-3.13
				c0.64-1.18,1.03-2.96,1.16-5.34c0.39-7.14,0.58-10.66,0.95-17.61c0.13-2.32-0.09-3.75-0.64-4.5c-0.55-0.75-1.6-1.13-3.16-1.11
				c0.02-0.32,0.03-0.47,0.04-0.79c4.55-1.25,6.82-1.81,11.36-2.81C287.01,90.71,286.94,91.88,286.78,94.95z M277.63,121.36
				c2.84-0.95,4.25-1.42,7.09-2.36c-0.32-0.18-0.49-0.27-0.81-0.46c-0.04-0.04-0.09-0.06-0.13-0.08c-0.18-0.1-0.26-0.16-0.44-0.26
				c-0.31-0.28-0.46-0.74-0.45-1.4c0.02-0.33,0.03-0.49,0.04-0.82c0.01-0.16,0.01-0.25,0.02-0.41c0.58-10.72,0.9-16.72,1.39-25.79
				c-2.31,0.53-3.47,0.82-5.79,1.42c0.53,0.32,0.79,0.47,1.32,0.79c0.02,0,0.07,0.02,0.13,0.09c0.18,0.11,0.26,0.17,0.44,0.29
				c0.22,0.13,0.36,0.35,0.42,0.66s0.06,0.81,0.01,1.74c-0.46,8.58-0.7,12.94-1.18,21.79c-0.06,1.15-0.15,1.89-0.26,2.2
				c-0.11,0.31-0.41,0.79-0.91,1.43c-0.07,0.08-0.11,0.13-0.11,0.16C278.1,120.75,277.94,120.95,277.63,121.36z M295.62,88.56
				c0.5,0.67,0.72,1.42,0.68,2.25c-0.04,0.71-0.22,1.58-0.53,2.68c-0.29,1.05-0.44,1.76-0.46,2.1c-0.06,1.02,0.31,1.48,1.11,1.4
				c1-0.11,1.56-1.11,1.66-3.02C298.21,91.54,297.38,89.76,295.62,88.56z"/>
		</g>
	</g>
	<g>
		<path class="st0" d="M220.05,59.21c-1.5-7.37,4.49-12.98,11.37-11.37c8.1,1.89,12.47,9.8,9.59,17.72
			c-3.36,9.24-10.39,14.77-19.86,17.53c-8.55,2.5-17.27,2.21-26,1.13c-9.65-1.19-19.23-3.06-29.03-2.65
			c-3.51,0.15-7.03,0.34-10.5,0.85c-3.79,0.56-7.32,2.52-9.79,4.95c0.29,0,0.52,0.07,0.64-0.01c7.07-4.52,14.58-4.4,22.27-1.91
			c4.73,1.53,9.08,3.74,12.53,7.31c6.21,6.42,5.62,13.38-1.62,18.7c-2.54,1.87-5.28,3.43-8.66,3.29c-4.07-0.17-7.3-3.72-7.4-8.12
			c-0.08-3.56,3.04-6.84,6.87-7.2c0.45-0.04,0.91-0.01,1.43-0.01c-0.03,1.46-0.93,1.83-2.05,1.99c-3,0.43-3.99,1.66-3.72,4.6
			c0.5,5.47,5.71,8.15,10.62,5.45c0.76-0.42,1.49-0.92,2.17-1.45c4.25-3.35,5.02-7.72,2.14-12.26c-2.42-3.81-6.02-6.32-10.04-8.31
			c-6.04-2.98-12.35-4.79-19.16-3.11c-8.79,2.16-16.43,11.43-16.68,20.29c-0.05,1.71,0.8,3.45,1.27,5.3
			c-1.96-1.16-2.5-2.96-2.58-4.92c-0.16-3.82,1.24-7.25,3.09-10.52c4.22-7.47,9.92-13.43,18.59-15.94c5.9-1.71,12.05-1.6,18.15-1.7
			c7.91-0.13,15.62,1.51,23.42,2.34c8.54,0.91,17.13,1.3,25.53-0.88c9.18-2.39,15.3-8.01,17.32-17.18
			c1.43-6.49-3.83-13.22-10.63-14.08c-4.43-0.56-7.41,1.74-7.83,6.05c-0.07,0.68,0.08,1.4-0.12,2.03
			C221.18,57.76,220.66,58.29,220.05,59.21z"/>
		<path class="st0" d="M172.7,74.68c3.07-1.49,3.92-4.35,4.8-7.18c0.56-1.79,0.97-3.63,1.69-5.36c0.26-0.63,1.21-1,1.85-1.49
			c0.48,0.62,1.26,1.18,1.4,1.87c0.88,4.39-1.63,9.58-5.68,11.66c-1.16,0.6-2.55,0.75-3.84,1.11
			C172.85,75.09,172.77,74.89,172.7,74.68z"/>
		<path class="st0" d="M165.29,75.69c2.95-2.73,2.89-6.16,3.02-9.55c0.05-1.17,0.08-2.41,0.49-3.48c0.54-1.41,1.84-1.46,2.65-0.28
			c2.73,3.97,0.9,10.57-3.55,12.63C167.1,75.37,166.16,75.46,165.29,75.69z"/>
		<path class="st0" d="M178.74,75.36c3.4-1.95,6.18-3.65,9.08-5.14c0.66-0.34,2.03-0.3,2.48,0.13c0.45,0.43,0.46,1.73,0.12,2.4
			c-1.11,2.21-3.17,3.37-5.64,3.4C182.92,76.17,181.05,75.69,178.74,75.36z"/>
	</g>
	<path class="st0" d="M90.8,201.98c48.13-17.77,111.46-40.58,158.69-58.72c2.32-0.9,6.89-2.82,9.15-3.85
		c16.21-7.64,31.81-9.28,49.42-6.57c6.34,0.91,12.74,2.95,18.73,0.39c5.7-2.33,8.92-8.72,8.73-14.74
		c-0.03-6.41-7.15-10.24-12.87-10.64c-4.93-0.55-8.88,3.4-10.3,7.86c-1.85,5.37,1.25,9.73,6.86,10.14
		c-6.07-0.03-9.38-4.59-7.76-10.4c1.28-5.1,5.72-9.68,11.25-9.35c5.28,0.15,10.63,2.55,13.72,6.97c2.85,4.7,1.76,10.89-0.56,15.62
		c-4.52,8.81-14.64,10.22-23.4,8.28c-14.36-2.54-29.51-2.99-43.49,1.59C210.05,160.98,150.37,181.46,90.8,201.98L90.8,201.98z"/>
	<g>
		<path class="st0" d="M341.97,133.59c3.2-3.36,6.34-6.76,9.63-10.03c0.54-0.54,1.71-0.55,2.6-0.81c0.2,0.88,0.87,2.03,0.5,2.6
			c-1.19,1.83-2.45,3.84-4.26,5.05c-2.42,1.62-5.38,2.55-8.1,3.78C342.21,133.98,342.09,133.79,341.97,133.59z"/>
		<path class="st0" d="M336.93,139.68c2.86-2.32,9.18-3.23,12.89-1.39c1.19,0.59,2.11,1.69,3,2.68c0.25,0.28,0.16,1.12-0.12,1.45
			c-0.29,0.34-1.07,0.61-1.53,0.51C346.31,141.86,341.48,140.72,336.93,139.68z"/>
		<path class="st0" d="M329.77,143.75c2.51-1.84,5.27-2.12,8.17-1.14c2.81,0.95,4.93,2.64,5.64,5.44c0.14,0.56-0.16,1.62-0.6,1.82
			c-0.58,0.27-1.63,0.13-2.23-0.21c-0.94-0.53-1.67-1.38-2.49-2.08C335.86,145.54,333.29,143.82,329.77,143.75z"/>
	</g>
	<path class="st0" d="M188.39,85.04c17.17,1.79,75.65,9.6,80.76-12.16c0.68-3.4,1.14-10.19-3.7-10.34c-3.25-0.01-6.1,3.66-4.35,6.82
		c0.52,1.05,1.33,1.99,2.26,2.81c-1.06-0.63-2.09-1.39-2.84-2.46c-5.46-8.82,13.05-16.03,11.72,1.79
		C269.12,99.39,207.21,89.4,188.39,85.04L188.39,85.04z"/>
	<path class="st0" d="M102.93,124.28l0.31-12.23c-0.77,1.74-1.48,3.11-2.15,4.12s-1.71,2.33-3.14,3.95
		C99.73,120.49,101.39,121.88,102.93,124.28z"/>
	<path class="st0" d="M81.05,72.6l-3.08,11.01c0,0-0.27-1.12-1.07-2.43c0.06,0.12,0.12,0.25,0.16,0.36
		c0.26,0.77,0.37,2.17,0.32,4.19c0,1.06-0.01,2.1-0.03,3.11l-0.04,1.61l-2.26,88.64L75,180.7c-0.03,1.01-0.07,2.06-0.13,3.15
		c-0.05,1.96-0.23,3.45-0.54,4.48c-0.31,1.03-1.04,2.55-2.19,4.56l-1.92,3.47l13.88-5.42l-1.78-2.03c-1.04-1.16-1.7-2.15-1.97-2.98
		c-0.28-0.83-0.39-2.19-0.34-4.09c0.03-1.01,0.04-1.69,0.03-2.03c-0.01-0.34,0-0.7,0-1.08l0.04-1.61l2.26-88.64l0.04-1.61
		c0.01-0.38,0.03-0.76,0.05-1.15c0.03-0.38,0.05-1.05,0.07-2c0.05-1.9,0.25-3.43,0.61-4.6c0.36-1.17,1.06-2.65,2.11-4.44l2.81-5.04
		l-9.34,3.64C80.1,72.88,81.05,72.6,81.05,72.6z"/>
	<path class="st0" d="M119.45,53.82L72.8,72.02c-3.4,0.85-6.64,2.02-9.77,3.4c-9.4,4.39-20.69,11.3-23.28,22.13
		c-1.09,5.18,1.12,13.01,7.13,13.69C42.1,122,33.51,132.69,23.36,133.69c-7.92,0.92-14.23-5.74-11.33-13.54
		c1.21-3.56,4.59-6.12,8.3-4.13c4.45,2.12,2.81,7.16-1.7,7.77c5.38-0.15,7.05-6.15,2.27-8.83c-4.42-2.83-9.14-0.04-10.93,4.35
		c-3.06,6.42,0.25,14.38,7.07,16.56c14.64,4.47,26.82-10.31,31.53-24.68c5.07-0.88,9.37-6.12,9.45-11.13
		c0.1-3.13-2.99-5.48-5.65-3.3c-0.69,0.59-1.11,1.42-1.26,2.27c0.22-0.84,0.7-1.61,1.39-2.11c1.33-1.03,3.44-0.72,4.21,0.8
		c1.12,2.25,0.09,4.95-1.26,6.9c-1.31,2-3.8,4.02-6.27,4.58c1.02-3.62,1.54-7.15,1.49-10.28c-0.47,3.16-1.49,6.77-2.97,10.43
		c-1.39-0.05-2.69-0.66-3.67-2.15c-1.65-2.54-2.13-6-1.28-8.94c0.83-3,2.8-5.66,5.14-7.92c6.36-5.89,12.27-9.27,20.7-11.32
		c1.82,0.36,4.3,1.11,4.95,2.39c0.81,1.5,1.34,3.48,1.59,5.95s0.3,6.58,0.16,12.33l-1.82,71.58c-0.23,9.04-0.99,15.31-2.27,18.81
		c-1.66,4.72-4.21,8.31-7.66,10.78l-0.08,2.94l31.56-12.31l0.08-2.94c-3.74,0.4-6.52-0.74-8.34-3.41c-1.03-1.54-1.7-3.55-2.01-6.02
		c-0.31-2.47-0.4-6.52-0.26-12.15l1.03-40.29l4.66-1.82c3.45-1.35,6.1-1.65,7.95-0.9c1.85,0.75,3.26,2.73,4.25,5.95
		c0.98,3.21,1.7,8.27,2.15,15.16l1.43-0.56l1.29-50.53l-1.43,0.56c-1.02,8.16-2.66,14.17-4.93,18.02
		c-2.26,3.86-5.79,6.72-10.57,8.58l-4.71,1.84l0.82-32.23c0.19-7.65,1.19-13.34,3-17.08c1.8-3.74,4.78-6.42,8.93-8.04l1.33-0.52
		c3.52-1.37,6.53-1.44,9.04-0.2c2.51,1.24,4.59,3.83,6.25,7.75s2.98,9.35,3.96,16.29l1.47-0.57L119.45,53.82z M101.09,116.18
		c0.67-1.01,1.39-2.39,2.15-4.12l-0.31,12.23c-1.54-2.4-3.2-3.79-4.98-4.16C99.37,118.5,100.42,117.19,101.09,116.18z M85.23,74.68
		c-1.05,1.79-1.75,3.27-2.11,4.44l-0.61,4.6c-0.02,0.95-0.05,1.62-0.07,2c-0.03,0.39-0.04,0.77-0.05,1.15l-0.04,1.61l-2.26,88.64
		l-0.04,1.61c-0.01,0.38-0.01,0.74,0,1.08c0.01,0.34,0,1.02-0.03,2.03c-0.05,1.9,0.07,3.26,0.34,4.09c0.28,0.83,0.93,1.83,1.97,2.98
		l1.78,2.03l-13.88,5.42l1.92-3.47c1.15-2.01,1.88-3.53,2.19-4.56c0.31-1.03,0.49-2.52,0.54-4.48c0.06-1.09,0.1-2.13,0.13-3.15
		l0.04-1.61l2.26-88.64l0.04-1.61c0.03-1.01,0.04-2.05,0.03-3.11c0.05-2.02-0.05-3.42-0.32-4.19c-0.04-0.11-0.1-0.24-0.16-0.36
		c-1.28-2.1-3.92-4.71-9.06-4.17c-2.35,0.25,6.47-2.42,10.86-3.71l9.34-3.64L85.23,74.68z M113.3,64.58
		c-1.04-1.29-2.45-2.36-4.25-3.22l6.8-2.65l0.72,12.2C115.42,67.97,114.33,65.86,113.3,64.58z"/>
</g>
<g id="Layer_1">
	<g>
		<g>
			<path class="st1" d="M114.51,179.41c0.04-0.75,0.06-1.13,0.1-1.89c1.64-1.08,2.79-2.49,3.47-4.24c0.67-1.74,1.11-4.48,1.32-8.27
				c1.2-22.23,2.4-44.46,3.6-66.68c0.21-3.95,0.07-6.74-0.44-8.37c-0.5-1.62-1.52-2.61-3.06-2.95c0.03-0.61,0.05-0.92,0.08-1.54
				c4.56-1.4,6.84-2.13,11.4-3.61c-1.46,27.12-2.93,54.25-4.39,81.37c-0.19,3.55-0.04,5.97,0.46,7.27c0.5,1.3,1.54,1.93,3.12,1.88
				c-0.04,0.67-0.05,1-0.09,1.66C123.85,176.21,120.73,177.28,114.51,179.41z M118.21,175.22c2.83-0.9,4.25-1.36,7.08-2.27
				c-0.32-0.35-0.47-0.53-0.79-0.89c-0.04-0.07-0.09-0.12-0.13-0.15c-0.17-0.2-0.26-0.3-0.43-0.5c-0.3-0.5-0.43-1.28-0.4-2.31
				c0.03-0.52,0.04-0.78,0.07-1.3c0.01-0.26,0.02-0.39,0.04-0.65c1.48-27.34,2.95-54.68,4.43-82.01c-2.32,0.71-3.48,1.06-5.8,1.74
				c0.5,0.75,0.75,1.12,1.26,1.87c0.02,0,0.07,0.07,0.13,0.2c0.17,0.27,0.25,0.4,0.42,0.67c0.21,0.31,0.34,0.79,0.38,1.42
				c0.04,0.63,0.01,1.75-0.08,3.35c-1.33,24.54-2.65,49.09-3.98,73.63c-0.1,1.83-0.21,2.98-0.33,3.45
				c-0.12,0.48-0.43,1.16-0.95,2.07c-0.08,0.11-0.11,0.19-0.12,0.23C118.7,174.35,118.54,174.64,118.21,175.22z"/>
			<path class="st1" d="M151.87,161.59c-3.11,4.69-6.33,7.7-9.67,8.88c-2.67,0.94-4.75,0.58-6.22-1.2c-1.47-1.79-2.1-4.66-1.89-8.52
				c0.3-5.49,2.08-10.2,5.35-13.95c3.26-3.74,7.81-6.31,13.66-8.03c0.04-0.65,0.05-0.97,0.09-1.63c0.02-0.33,0.03-0.49,0.04-0.82
				c0.16-3.04,0.22-5.54,0.16-7.47c-0.06-1.94-0.2-3.68-0.44-4.74c-0.28-1.23-0.72-2.18-1.32-2.86c-0.6-0.68-1.28-0.97-2.02-0.85
				c-1.1,0.17-2,0.99-2.71,2.47c-0.71,1.48-1.21,3.71-1.54,6.61c-0.33,2.86-0.72,4.4-1.2,5.38c-0.47,0.98-1.22,1.57-2.25,1.74
				c-0.8,0.13-1.44-0.25-1.92-1.15c-0.49-0.9-0.68-2.15-0.6-3.72c0.11-2.12,0.67-4.39,1.63-6.41c0.97-2.02,2.25-3.68,3.84-4.98
				c1.59-1.31,3.3-2.09,5.12-2.36c2.36-0.35,4.38,0.23,6.07,1.71c1.68,1.48,2.88,3.68,3.58,6.58c0.38,1.49,0.63,2.96,0.74,4.69
				c0.1,1.74,0.07,4.15-0.09,7.21c-0.35,6.52-0.52,9.69-0.86,15.84c-0.16,2.95,0.02,4.91,0.53,5.93c0.51,1.02,1.56,1.45,3.15,1.29
				c-0.03,0.55-0.04,0.82-0.07,1.36c-4.57,1.6-6.85,2.4-11.42,4C151.71,164.6,151.77,163.6,151.87,161.59z M143.85,168.35
				c-3.95,0.07-5.76-2.91-5.44-8.88c0.21-3.88,1.32-7.48,3.33-10.67c0.89-1.41,2.56-3.33,5.01-5.73c-2.89,1.53-5.16,3.24-6.82,5.18
				c-2.83,3.38-4.37,7.48-4.62,12.11c-0.18,3.35,0.39,5.84,1.71,7.41c1.32,1.57,3.12,1.91,5.39,1.14
				C142.94,168.72,143.42,168.53,143.85,168.35z M146.41,120.93c-1.68,1.06-3.07,2.57-4.16,4.56c-1.09,1.99-1.71,4.21-1.82,6.27
				c-0.04,0.79,0.03,1.39,0.22,1.81c0.19,0.42,0.45,0.6,0.81,0.55c0.33-0.05,0.58-0.26,0.77-0.64c0.18-0.37,0.36-1.1,0.54-2.18
				c0.38-2.33,0.82-4.43,1.3-5.79C144.54,124.16,145.32,122.63,146.41,120.93z M152,159.2c0.39-7.22,0.59-10.94,1-18.58
				c-2.31,1.11-4.32,2.52-6.02,4.26c-1.71,1.74-3.05,3.77-4.04,6.1c-0.98,2.33-1.55,4.78-1.68,7.31c-0.14,2.57,0.21,4.56,1.05,5.93
				c0.84,1.37,1.97,1.79,3.39,1.33C147.46,164.96,149.56,162.82,152,159.2z M152.94,163.82c2.1-0.71,3.15-1.06,5.25-1.77
				c-0.31-0.26-0.46-0.4-0.76-0.66c-0.07-0.08-0.11-0.12-0.13-0.11c-0.17-0.15-0.26-0.22-0.43-0.37c-0.33-0.41-0.47-1.02-0.42-1.84
				c0.02-0.42,0.03-0.64,0.06-1.06c0-0.21,0-0.31-0.01-0.52c0.39-7.27,0.6-11.03,1.02-18.79c0.29-5.29,0.14-9.11-0.47-11.93
				c-0.81-3.75-2.35-6.1-4.53-6.9c1.39,1.78,2.09,5.12,2.13,8.94c0.02,2.34-0.11,6-0.38,10.84
				C153.7,149.69,153.44,154.52,152.94,163.82z"/>
			<path class="st1" d="M179.43,124.43c1.61-3.22,3.14-5.95,4.58-8.18c1.44-2.23,2.81-3.91,4.1-5.03c1.29-1.12,2.66-1.88,4.13-2.29
				c1.79-0.5,3.42-0.28,4.89,0.62c1.47,0.89,2.55,2.33,3.27,4.27c0.8,2.16,1.11,5.26,0.89,9.3c-0.37,6.94-0.56,10.33-0.92,16.95
				c-0.15,2.76,0.04,4.59,0.55,5.52c0.52,0.93,1.57,1.31,3.16,1.12c-0.03,0.53-0.04,0.79-0.07,1.32c-6.23,2.23-9.35,3.35-15.58,5.57
				c0.03-0.52,0.04-0.77,0.07-1.29c1.63-0.96,2.76-2.11,3.41-3.46c0.64-1.35,1.04-3.37,1.18-6.13c0.36-6.74,0.55-10.23,0.94-17.42
				c0.21-3.87,0.19-6.55-0.06-7.99c-0.27-1.58-0.76-2.75-1.48-3.48c-0.73-0.73-1.63-0.94-2.72-0.63c-1.51,0.44-3.02,1.69-4.54,3.76
				c-1.52,2.07-3.51,5.59-5.98,10.48c-0.47,8.73-0.69,12.86-1.12,20.66c-0.15,2.78,0.04,4.59,0.56,5.51
				c0.52,0.92,1.57,1.28,3.16,1.08c-0.03,0.52-0.04,0.77-0.07,1.28c-6.23,2.23-9.35,3.32-15.58,5.5c0.03-0.53,0.04-0.8,0.07-1.34
				c1.63-0.95,2.77-2.09,3.42-3.43c0.65-1.34,1.05-3.4,1.21-6.27c0.46-8.6,0.71-13.16,1.23-22.77c0.17-3.2,0-5.52-0.52-6.82
				c-0.52-1.3-1.56-1.99-3.11-2.05c0.03-0.55,0.04-0.83,0.07-1.39c4.59-1.93,6.88-2.81,11.47-4.89
				C179.81,117.4,179.68,119.79,179.43,124.43z M169.88,158.07c2.84-0.97,4.25-1.42,7.09-2.44c-0.32-0.22-0.48-0.34-0.8-0.57
				c-0.04-0.05-0.09-0.08-0.13-0.1c-0.17-0.13-0.26-0.2-0.43-0.33c-0.31-0.34-0.45-0.9-0.43-1.68c0.02-0.39,0.03-0.59,0.05-0.99
				c0.22-4.07,0.33-6.17,0.57-10.5c0.12-2.2,0.18-3.31,0.3-5.57c0.41-7.66,0.63-11.66,1.09-20.17c-2.34,1-3.51,1.49-5.84,2.48
				c0.51,0.57,0.77,0.85,1.28,1.4c0.02-0.01,0.07,0.04,0.13,0.15c0.17,0.2,0.26,0.3,0.43,0.5c0.22,0.22,0.35,0.6,0.39,1.13
				c0.04,0.53,0.02,1.49-0.05,2.8c-0.51,9.45-1.02,18.91-1.53,28.36c-0.07,1.37-0.17,2.23-0.28,2.59c-0.11,0.36-0.42,0.9-0.92,1.62
				c-0.07,0.09-0.11,0.15-0.11,0.18C170.36,157.39,170.2,157.61,169.88,158.07z M192.1,150.21c2.83-1.02,4.24-1.53,7.06-2.55
				c-0.31-0.23-0.46-0.35-0.77-0.58c-0.07-0.07-0.11-0.1-0.13-0.1c-0.17-0.13-0.26-0.19-0.44-0.32c-0.33-0.36-0.47-0.92-0.43-1.67
				c0.02-0.39,0.03-0.59,0.05-0.99c0-0.19-0.01-0.29-0.01-0.48c0.41-7.56,0.62-11.46,1.05-19.5c0.14-2.66,0.14-4.76-0.01-6.25
				c-0.15-1.5-0.48-2.77-0.98-3.81c-1.3-2.63-3.11-3.68-5.44-3.01c-0.24,0.07-0.78,0.3-1.64,0.69c1.44-0.07,2.54,0.29,3.28,1.09
				c0.75,0.8,1.24,2.16,1.47,4.08c0.23,1.92,0.26,4.58,0.07,8.01c-0.44,8.24-0.66,12.21-1.07,19.88c-0.07,1.35-0.16,2.2-0.26,2.55
				c-0.1,0.36-0.4,0.9-0.91,1.62c-0.05,0.08-0.08,0.12-0.09,0.13c-0.01,0-0.03,0.03-0.06,0.07
				C192.55,149.53,192.4,149.76,192.1,150.21z"/>
			<path class="st1" d="M216.31,120.71c-0.02,0.44-0.04,0.67-0.06,1.11c-0.22,4,0.01,7.34,0.68,10.02c0.67,2.69,1.72,4.56,3.16,5.65
				c1.44,1.08,3.19,1.26,5.25,0.52c1.09-0.39,2.2-1.05,3.33-1.97c1.13-0.92,2.26-2.07,3.39-3.43c1.13-1.37,2.42-3.19,3.86-5.45
				c0.25,0.44,0.38,0.66,0.64,1.1c-2.62,4.23-5.06,7.51-7.33,9.75c-2.27,2.24-4.75,3.84-7.45,4.8c-2.82,1-5.29,1.03-7.44,0.11
				c-2.14-0.92-3.75-2.72-4.81-5.43c-1.06-2.71-1.48-6.07-1.26-10.1c0.23-4.23,1.12-8.41,2.67-12.44c1.55-4.03,3.56-7.45,6.01-10.17
				c2.46-2.72,5.13-4.46,8.03-5.29c2.47-0.71,4.71-0.66,6.69,0.09c1.99,0.75,3.49,2.18,4.52,4.25c1.06,2.13,1.6,5.22,1.51,9.38
				C229.15,116.12,224.87,117.66,216.31,120.71z M223.37,140.74c-1.66,0.3-2.99,0.33-3.97,0.1c-0.99-0.23-1.93-0.81-2.83-1.72
				c-1.34-1.34-2.34-3.38-2.97-6.14c-0.64-2.76-0.86-5.96-0.66-9.61c0.14-2.53,0.43-4.93,0.89-7.19c0.46-2.26,1.09-4.36,1.91-6.29
				c0.81-1.94,1.87-3.86,3.18-5.75c-2.8,2.91-5.02,6.4-6.65,10.37c-1.63,3.98-2.56,8.14-2.79,12.4c-0.2,3.65,0.2,6.73,1.21,9.26
				c1,2.52,2.49,4.23,4.47,5.14c1.98,0.91,4.22,0.93,6.73,0.03C222.45,141.12,222.95,140.93,223.37,140.74z M216.41,118.95
				c5.66-2,8.49-3,14.15-4.96c0.21-4.39,0.05-7.41-0.45-9.1c-0.46-1.55-1.16-2.66-2.12-3.3c-0.96-0.65-2.07-0.79-3.32-0.42
				C220.15,102.5,217.39,108.47,216.41,118.95z M234.85,112.52c0.06-2.36-0.15-4.39-0.61-6.12c-0.46-1.73-1.16-3.09-2.09-4.1
				c-0.93-1.01-2.07-1.6-3.4-1.77c1.29,1.07,2.18,2.5,2.67,4.32c0.49,1.82,0.66,4.26,0.49,7.34c-0.03,0.52-0.06,0.98-0.11,1.38
				C233.02,113.14,233.63,112.93,234.85,112.52z"/>
			<path class="st1" d="M263.27,118.75c-2.18,3.94-4.24,7.05-6.17,9.2c-1.93,2.15-3.97,3.64-6.12,4.4
				c-1.89,0.67-3.56,0.68-4.99,0.01c-1.44-0.67-2.53-1.91-3.26-3.7c-0.76-1.85-1.03-4.78-0.82-8.71c0.34-6.22,0.5-9.25,0.82-15.17
				c0.14-2.58-0.06-4.29-0.59-5.22c-0.53-0.92-1.58-1.32-3.14-1.17c0.02-0.4,0.03-0.61,0.05-1.01c4.59-1.96,6.88-2.82,11.45-4.5
				c-0.5,9.2-0.78,14.46-1.35,25.04c-0.19,3.55-0.15,5.98,0.1,7.21c0.28,1.38,0.77,2.39,1.49,2.96c0.72,0.58,1.59,0.69,2.61,0.34
				c1.42-0.49,2.84-1.59,4.27-3.28c1.42-1.68,3.15-4.32,5.17-7.79c0.25-0.43,0.37-0.64,0.61-1.06c0.39-7.13,0.57-10.62,0.94-17.47
				c0.13-2.47-0.07-4.01-0.61-4.81c-0.54-0.8-1.58-1.17-3.14-1.08c0.02-0.35,0.03-0.52,0.05-0.87c4.57-1.57,6.85-2.3,11.4-3.63
				c-0.51,9.47-0.85,15.72-1.48,27.35c-0.14,2.5,0.06,4.2,0.58,5.07c0.52,0.87,1.58,1.21,3.16,1.01c-0.03,0.48-0.04,0.72-0.07,1.21
				c-4.57,1.6-6.85,2.4-11.42,4C263,123.74,263.09,122.06,263.27,118.75z M247.62,95.32c-2.33,0.91-3.5,1.38-5.83,2.34
				c0.54,0.35,0.81,0.53,1.34,0.88c0.02-0.01,0.04,0,0.05,0.01c0.01,0.01,0.04,0.04,0.08,0.09c0.17,0.13,0.26,0.19,0.44,0.32
				c0.2,0.12,0.33,0.35,0.38,0.69c0.05,0.34,0.05,1.06-0.02,2.23c-0.37,6.89-0.56,10.44-0.96,17.74c-0.13,2.32-0.08,4.21,0.15,5.65
				c0.22,1.44,0.64,2.71,1.26,3.67c0.74,1.13,1.69,1.92,2.68,2.33c0.99,0.41,1.97,0.45,2.94,0.1c0.07-0.02,0.42-0.18,1.03-0.46
				c-1.4,0.2-2.47-0.06-3.21-0.77s-1.23-1.97-1.48-3.75c-0.25-1.79-0.29-4.31-0.12-7.52C246.88,109,247.14,104.08,247.62,95.32z
				 M264.13,124.61c2.1-0.72,3.15-1.07,5.25-1.79c-0.31-0.22-0.46-0.33-0.77-0.55c-0.07-0.07-0.11-0.1-0.13-0.09
				c-0.17-0.12-0.26-0.18-0.44-0.31c-0.33-0.34-0.48-0.87-0.44-1.58c0.02-0.37,0.03-0.55,0.05-0.92c0-0.18-0.01-0.27-0.01-0.45
				c0.51-9.46,1.02-18.93,1.53-28.39c-2.32,0.71-3.48,1.09-5.81,1.86c0.54,0.31,0.81,0.47,1.35,0.78c0.02-0.01,0.04,0,0.05,0.01
				c0.01,0.01,0.04,0.04,0.08,0.08c0.17,0.11,0.26,0.17,0.44,0.29c0.2,0.11,0.33,0.31,0.38,0.6c0.05,0.29,0.06,0.86,0,1.98
				C265.16,105.62,264.65,115.11,264.13,124.61z"/>
			<path class="st1" d="M288.78,92.95c1.51-3.11,2.82-4.86,3.96-5.98c1.14-1.12,2.42-1.73,3.84-1.84c1.77-0.13,3.21,0.47,4.32,1.78
				c1.11,1.31,1.61,3,1.5,5.05c-0.07,1.31-0.4,2.33-0.99,3.11c-0.59,0.77-1.38,1.23-2.39,1.35c-0.86,0.11-1.55-0.1-2.05-0.65
				c-0.5-0.54-0.73-1.3-0.68-2.26c0.02-0.44,0.11-0.94,0.25-1.49c0.16-0.57,0.24-0.88,0.39-1.41c0.23-0.81,0.36-1.53,0.39-2.15
				c0.03-0.62-0.11-1.09-0.43-1.42c-0.32-0.33-0.76-0.47-1.32-0.43c-0.65,0.05-1.31,0.35-1.96,0.9c-0.66,0.55-1.37,1.4-2.14,2.57
				c-0.77,1.17-1.72,2.97-2.85,5.36c-0.33,6.09-0.49,9.16-0.83,15.35c-0.12,2.22,0.14,3.7,0.79,4.41c0.65,0.71,1.89,0.9,3.74,0.58
				c-0.02,0.42-0.03,0.62-0.06,1.04c-6.53,2.26-9.79,3.4-16.32,5.68c0.03-0.48,0.04-0.72,0.06-1.2c1.63-0.9,2.76-1.95,3.41-3.13
				c0.64-1.18,1.03-2.96,1.16-5.34c0.39-7.14,0.58-10.66,0.95-17.61c0.13-2.32-0.09-3.75-0.64-4.5c-0.55-0.75-1.6-1.13-3.16-1.11
				c0.02-0.32,0.03-0.47,0.04-0.79c4.55-1.25,6.82-1.81,11.36-2.81C289.01,88.71,288.95,89.88,288.78,92.95z M279.63,119.36
				c2.84-0.95,4.25-1.42,7.09-2.36c-0.32-0.18-0.49-0.27-0.81-0.46c-0.04-0.04-0.09-0.06-0.13-0.08c-0.18-0.1-0.26-0.16-0.44-0.26
				c-0.31-0.28-0.46-0.74-0.45-1.4c0.02-0.33,0.03-0.49,0.04-0.82c0.01-0.16,0.01-0.25,0.02-0.41c0.58-10.72,0.9-16.72,1.39-25.79
				c-2.31,0.53-3.47,0.82-5.79,1.42c0.53,0.32,0.79,0.47,1.32,0.79c0.02,0,0.07,0.02,0.13,0.09c0.18,0.11,0.26,0.17,0.44,0.29
				c0.22,0.13,0.36,0.35,0.42,0.66s0.06,0.81,0.01,1.74c-0.46,8.58-0.7,12.94-1.18,21.79c-0.06,1.15-0.15,1.89-0.26,2.2
				c-0.11,0.31-0.41,0.79-0.91,1.43c-0.07,0.08-0.11,0.13-0.11,0.16C280.1,118.75,279.94,118.95,279.63,119.36z M297.62,86.56
				c0.5,0.67,0.72,1.42,0.68,2.25c-0.04,0.71-0.22,1.58-0.53,2.68c-0.29,1.05-0.44,1.76-0.46,2.1c-0.06,1.02,0.31,1.48,1.11,1.4
				c1-0.11,1.56-1.11,1.66-3.02C300.21,89.53,299.39,87.76,297.62,86.56z"/>
		</g>
	</g>
	<g>
		<path class="st1" d="M222.05,57.21c-1.5-7.37,4.49-12.98,11.37-11.37c8.1,1.89,12.47,9.8,9.59,17.72
			c-3.36,9.24-10.39,14.77-19.86,17.53c-8.55,2.5-17.27,2.21-26,1.13c-9.65-1.19-19.23-3.06-29.03-2.65
			c-3.51,0.15-7.03,0.34-10.5,0.85c-3.79,0.56-7.32,2.52-9.79,4.95c0.29,0,0.52,0.07,0.64-0.01c7.07-4.52,14.58-4.4,22.27-1.91
			c4.73,1.53,9.08,3.74,12.53,7.31c6.21,6.42,5.62,13.38-1.62,18.7c-2.54,1.87-5.28,3.43-8.66,3.29c-4.07-0.17-7.3-3.72-7.4-8.12
			c-0.08-3.56,3.04-6.84,6.87-7.2c0.45-0.04,0.91-0.01,1.43-0.01c-0.03,1.46-0.93,1.83-2.05,1.99c-3,0.43-3.99,1.66-3.72,4.6
			c0.5,5.47,5.71,8.15,10.62,5.45c0.76-0.42,1.49-0.92,2.17-1.45c4.25-3.35,5.02-7.72,2.14-12.26c-2.42-3.81-6.02-6.32-10.04-8.31
			c-6.04-2.98-12.35-4.79-19.16-3.11c-8.79,2.16-16.43,11.43-16.68,20.29c-0.05,1.71,0.8,3.45,1.27,5.3
			c-1.96-1.16-2.5-2.96-2.58-4.92c-0.16-3.82,1.24-7.25,3.09-10.52c4.22-7.47,9.92-13.43,18.59-15.94c5.9-1.71,12.05-1.6,18.15-1.7
			c7.91-0.13,15.62,1.51,23.42,2.34c8.54,0.91,17.13,1.3,25.53-0.88c9.18-2.39,15.3-8.01,17.32-17.18
			c1.43-6.49-3.83-13.22-10.63-14.08c-4.43-0.56-7.41,1.74-7.83,6.05c-0.07,0.68,0.08,1.4-0.12,2.03
			C223.18,55.76,222.66,56.29,222.05,57.21z"/>
		<path class="st1" d="M174.7,72.68c3.07-1.49,3.92-4.35,4.8-7.18c0.56-1.79,0.97-3.63,1.69-5.36c0.26-0.63,1.21-1,1.85-1.49
			c0.48,0.62,1.26,1.18,1.4,1.87c0.88,4.39-1.63,9.58-5.68,11.66c-1.16,0.6-2.55,0.75-3.84,1.11
			C174.85,73.09,174.77,72.89,174.7,72.68z"/>
		<path class="st1" d="M167.29,73.68c2.95-2.73,2.89-6.16,3.02-9.55c0.05-1.17,0.08-2.41,0.49-3.48c0.54-1.41,1.84-1.46,2.65-0.28
			c2.73,3.97,0.9,10.57-3.55,12.63C169.11,73.37,168.17,73.46,167.29,73.68z"/>
		<path class="st1" d="M180.74,73.36c3.4-1.95,6.18-3.65,9.08-5.14c0.66-0.34,2.03-0.3,2.48,0.13c0.45,0.43,0.46,1.73,0.12,2.4
			c-1.11,2.21-3.17,3.37-5.64,3.4C184.92,74.17,183.05,73.68,180.74,73.36z"/>
	</g>
	<g>
		<path d="M178.06,186.68h0.21c0.14,0.68,0.32,1.26,0.54,1.73c0.22,0.47,0.47,0.86,0.73,1.16c0.27,0.3,0.54,0.54,0.84,0.7
			c0.29,0.17,0.59,0.29,0.88,0.36c0.3,0.08,0.58,0.12,0.85,0.13s0.53,0.02,0.77,0.02c0.67,0,1.22-0.1,1.65-0.3
			c0.43-0.2,0.77-0.46,1.03-0.77c0.25-0.31,0.43-0.65,0.53-1.01s0.15-0.69,0.15-1c0-0.44-0.08-0.82-0.25-1.14
			c-0.17-0.32-0.37-0.59-0.63-0.81c-0.25-0.22-0.53-0.4-0.83-0.54c-0.3-0.14-0.58-0.25-0.85-0.32l-2.19-0.67
			c-1.03-0.32-1.8-0.73-2.33-1.25c-0.53-0.52-0.79-1.22-0.79-2.09c0-0.57,0.1-1.1,0.3-1.59c0.2-0.49,0.49-0.91,0.85-1.26
			c0.37-0.35,0.81-0.63,1.32-0.84c0.51-0.2,1.07-0.3,1.68-0.3c0.44,0,0.81,0.04,1.11,0.11c0.3,0.08,0.55,0.16,0.77,0.26
			c0.22,0.09,0.41,0.18,0.58,0.26c0.17,0.08,0.34,0.11,0.52,0.11c0.16,0,0.28-0.02,0.33-0.07c0.06-0.04,0.14-0.16,0.24-0.33h0.27
			v3.44h-0.23c-0.08-0.46-0.21-0.9-0.39-1.32c-0.18-0.42-0.42-0.8-0.71-1.12c-0.29-0.32-0.64-0.58-1.05-0.78s-0.89-0.29-1.43-0.29
			c-0.3,0-0.64,0.04-1.01,0.12s-0.71,0.22-1.03,0.43c-0.32,0.2-0.58,0.47-0.79,0.8s-0.31,0.75-0.31,1.25c0,0.41,0.08,0.75,0.25,1.04
			c0.16,0.29,0.38,0.53,0.64,0.72s0.55,0.36,0.87,0.49c0.32,0.13,0.65,0.25,0.98,0.35l2.3,0.72c0.24,0.08,0.54,0.18,0.91,0.3
			c0.37,0.13,0.72,0.32,1.07,0.57c0.35,0.25,0.65,0.59,0.89,1.01s0.37,0.95,0.37,1.6c0,0.6-0.11,1.16-0.33,1.7
			c-0.22,0.54-0.54,1.01-0.96,1.42c-0.42,0.41-0.92,0.74-1.52,0.99c-0.6,0.25-1.27,0.37-2.01,0.37c-0.27,0-0.5,0-0.7-0.01
			c-0.2-0.01-0.39-0.02-0.57-0.05c-0.18-0.03-0.35-0.05-0.53-0.08c-0.18-0.03-0.37-0.08-0.59-0.14c-0.25-0.08-0.53-0.16-0.82-0.27
			c-0.29-0.1-0.54-0.15-0.76-0.15c-0.19,0-0.32,0.04-0.39,0.11c-0.07,0.08-0.13,0.18-0.18,0.3h-0.29V186.68z"/>
		<path d="M192.75,190.5h2.11v-13h-1.1c-0.25,0-0.54,0.02-0.85,0.07s-0.64,0.17-0.96,0.37c-0.32,0.2-0.63,0.52-0.93,0.96
			c-0.3,0.44-0.55,1.04-0.77,1.81h-0.21v-3.48h11.55v3.48h-0.21c-0.22-0.77-0.47-1.38-0.77-1.81c-0.3-0.44-0.61-0.76-0.93-0.96
			c-0.32-0.2-0.64-0.33-0.96-0.37c-0.32-0.04-0.6-0.07-0.85-0.07h-1.1v13h2.11v0.27h-6.12V190.5z"/>
		<path d="M202.88,190.5h2.11v-13h-2.11v-0.27h3.61c0.15,0,0.3,0,0.46-0.01c0.15-0.01,0.3-0.02,0.46-0.03c0.15,0,0.3,0,0.46-0.01
			c0.15-0.01,0.3-0.01,0.46-0.01c0.75,0,1.41,0.04,1.98,0.12c0.57,0.08,1.1,0.32,1.6,0.71c0.44,0.34,0.76,0.73,0.94,1.16
			c0.18,0.43,0.28,0.84,0.28,1.22c0,0.19-0.04,0.43-0.1,0.73c-0.07,0.3-0.22,0.6-0.46,0.91s-0.57,0.6-1.02,0.85
			c-0.44,0.26-1.03,0.43-1.77,0.52v0.04c0.2,0.03,0.48,0.07,0.83,0.14c0.35,0.07,0.7,0.19,1.06,0.35c0.36,0.17,0.69,0.38,1,0.66
			c0.3,0.27,0.52,0.62,0.65,1.05c0.08,0.25,0.13,0.54,0.16,0.87c0.03,0.32,0.06,0.66,0.08,1c0.02,0.34,0.04,0.67,0.06,0.99
			s0.05,0.58,0.1,0.8c0.08,0.33,0.2,0.63,0.36,0.89c0.16,0.27,0.43,0.4,0.8,0.4c0.16,0,0.34-0.03,0.51-0.09
			c0.18-0.06,0.34-0.17,0.47-0.3l0.17,0.21c-0.06,0.05-0.14,0.1-0.22,0.16c-0.08,0.06-0.19,0.11-0.31,0.16
			c-0.13,0.05-0.28,0.09-0.47,0.12c-0.18,0.03-0.41,0.05-0.67,0.05c-0.51,0-0.93-0.06-1.26-0.19c-0.34-0.13-0.6-0.31-0.81-0.56
			s-0.35-0.55-0.45-0.91c-0.09-0.36-0.16-0.78-0.2-1.26l-0.13-1.73c-0.05-0.63-0.18-1.13-0.38-1.48s-0.44-0.61-0.71-0.78
			c-0.27-0.16-0.55-0.26-0.85-0.29c-0.29-0.03-0.54-0.05-0.76-0.05h-1.9v6.86h2.11v0.27h-6.12V190.5z M206.88,183.37h1.75
			c0.35,0,0.68-0.04,0.97-0.13c0.29-0.09,0.54-0.24,0.75-0.46s0.37-0.52,0.48-0.9c0.11-0.38,0.17-0.86,0.17-1.44
			c0-0.66-0.09-1.19-0.26-1.59c-0.17-0.4-0.39-0.7-0.67-0.9c-0.27-0.2-0.58-0.33-0.91-0.4c-0.34-0.06-0.67-0.1-1-0.1
			c-0.23,0-0.46,0-0.69,0.01c-0.23,0.01-0.43,0.02-0.6,0.05V183.37z"/>
		<path d="M217.32,183.98c0-1.01,0.2-1.95,0.6-2.81s0.91-1.61,1.54-2.24s1.33-1.13,2.12-1.49c0.79-0.36,1.57-0.54,2.36-0.54
			c0.84,0,1.65,0.18,2.44,0.54c0.79,0.36,1.5,0.86,2.12,1.49s1.12,1.38,1.49,2.24c0.37,0.86,0.56,1.8,0.56,2.81
			c0,0.89-0.17,1.75-0.51,2.6c-0.34,0.85-0.81,1.6-1.41,2.26c-0.6,0.66-1.3,1.19-2.1,1.6c-0.8,0.41-1.67,0.61-2.59,0.61
			c-0.95,0-1.83-0.2-2.64-0.59c-0.81-0.39-1.51-0.92-2.1-1.57s-1.05-1.41-1.38-2.26C217.48,185.78,217.32,184.89,217.32,183.98z
			 M219.5,183.98c0,1.14,0.08,2.13,0.23,2.98s0.41,1.56,0.76,2.13s0.81,0.99,1.37,1.27c0.56,0.28,1.25,0.42,2.07,0.42
			c0.81,0,1.5-0.14,2.06-0.42c0.56-0.28,1.02-0.7,1.38-1.27s0.61-1.28,0.76-2.13s0.23-1.84,0.23-2.98c0-0.87-0.06-1.72-0.17-2.54
			c-0.11-0.82-0.33-1.54-0.66-2.19c-0.32-0.64-0.77-1.15-1.35-1.53c-0.58-0.38-1.33-0.57-2.25-0.57s-1.68,0.19-2.25,0.57
			s-1.03,0.89-1.35,1.53c-0.32,0.64-0.54,1.37-0.66,2.19C219.56,182.26,219.5,183.11,219.5,183.98z"/>
		<path d="M232.4,190.5h2.11v-13h-2.11v-0.27h6.12v0.27h-2.11v13h3.38c1.11,0,1.99-0.35,2.62-1.04c0.63-0.7,1.1-1.65,1.39-2.85h0.21
			v4.16H232.4V190.5z"/>
		<path d="M245.42,190.5h2.11v-13h-2.11v-0.27h6.12v0.27h-2.11v13h3.38c1.11,0,1.99-0.35,2.62-1.04c0.63-0.7,1.1-1.65,1.39-2.85
			h0.21v4.16h-11.61V190.5z"/>
		<path d="M259.29,186.68h0.21c0.14,0.68,0.32,1.26,0.54,1.73c0.22,0.47,0.47,0.86,0.73,1.16c0.27,0.3,0.54,0.54,0.84,0.7
			c0.29,0.17,0.59,0.29,0.88,0.36c0.3,0.08,0.58,0.12,0.85,0.13s0.53,0.02,0.77,0.02c0.67,0,1.22-0.1,1.65-0.3
			c0.43-0.2,0.77-0.46,1.03-0.77c0.25-0.31,0.43-0.65,0.53-1.01s0.15-0.69,0.15-1c0-0.44-0.08-0.82-0.25-1.14
			c-0.17-0.32-0.37-0.59-0.63-0.81c-0.25-0.22-0.53-0.4-0.83-0.54c-0.3-0.14-0.58-0.25-0.85-0.32l-2.19-0.67
			c-1.03-0.32-1.8-0.73-2.33-1.25c-0.53-0.52-0.79-1.22-0.79-2.09c0-0.57,0.1-1.1,0.3-1.59c0.2-0.49,0.49-0.91,0.85-1.26
			c0.37-0.35,0.81-0.63,1.32-0.84c0.51-0.2,1.07-0.3,1.68-0.3c0.44,0,0.81,0.04,1.11,0.11c0.3,0.08,0.55,0.16,0.77,0.26
			c0.22,0.09,0.41,0.18,0.58,0.26c0.17,0.08,0.34,0.11,0.52,0.11c0.16,0,0.28-0.02,0.33-0.07c0.06-0.04,0.14-0.16,0.24-0.33h0.27
			v3.44h-0.23c-0.08-0.46-0.21-0.9-0.39-1.32c-0.18-0.42-0.42-0.8-0.71-1.12c-0.29-0.32-0.64-0.58-1.05-0.78s-0.89-0.29-1.43-0.29
			c-0.3,0-0.64,0.04-1.01,0.12s-0.71,0.22-1.03,0.43c-0.32,0.2-0.58,0.47-0.79,0.8s-0.31,0.75-0.31,1.25c0,0.41,0.08,0.75,0.25,1.04
			c0.16,0.29,0.38,0.53,0.64,0.72s0.55,0.36,0.87,0.49c0.32,0.13,0.65,0.25,0.98,0.35l2.3,0.72c0.24,0.08,0.54,0.18,0.91,0.3
			c0.37,0.13,0.72,0.32,1.07,0.57c0.35,0.25,0.65,0.59,0.89,1.01s0.37,0.95,0.37,1.6c0,0.6-0.11,1.16-0.33,1.7
			c-0.22,0.54-0.54,1.01-0.96,1.42c-0.42,0.41-0.92,0.74-1.52,0.99c-0.6,0.25-1.27,0.37-2.01,0.37c-0.27,0-0.5,0-0.7-0.01
			c-0.2-0.01-0.39-0.02-0.57-0.05c-0.18-0.03-0.35-0.05-0.53-0.08c-0.18-0.03-0.37-0.08-0.59-0.14c-0.25-0.08-0.53-0.16-0.82-0.27
			c-0.29-0.1-0.54-0.15-0.76-0.15c-0.19,0-0.32,0.04-0.39,0.11c-0.07,0.08-0.13,0.18-0.18,0.3h-0.29V186.68z"/>
		<path d="M274.75,190.5h1.67l5.13-13.6h0.46l5.17,13.6h1.69v0.27h-5.85v-0.27h2.11l-2-5.28h-4.41l-2,5.28h2.11v0.27h-4.08V190.5z
			 M280.93,179.42l-2.09,5.53h4.18L280.93,179.42z"/>
		<path d="M289.42,190.5h2.11v-13h-2.11v-0.27h6.12v0.27h-2.11v13h3.38c1.11,0,1.99-0.35,2.62-1.04c0.63-0.7,1.1-1.65,1.39-2.85
			h0.21v4.16h-11.61V190.5z"/>
		<path d="M303.16,183.98c0-1.01,0.2-1.95,0.6-2.81s0.91-1.61,1.54-2.24s1.33-1.13,2.12-1.49c0.79-0.36,1.57-0.54,2.36-0.54
			c0.84,0,1.65,0.18,2.44,0.54c0.79,0.36,1.5,0.86,2.12,1.49s1.12,1.38,1.49,2.24c0.37,0.86,0.56,1.8,0.56,2.81
			c0,0.89-0.17,1.75-0.51,2.6c-0.34,0.85-0.81,1.6-1.41,2.26c-0.6,0.66-1.3,1.19-2.1,1.6c-0.8,0.41-1.67,0.61-2.59,0.61
			c-0.95,0-1.83-0.2-2.64-0.59c-0.81-0.39-1.51-0.92-2.1-1.57s-1.05-1.41-1.38-2.26C303.32,185.78,303.16,184.89,303.16,183.98z
			 M305.34,183.98c0,1.14,0.08,2.13,0.23,2.98s0.41,1.56,0.76,2.13s0.81,0.99,1.37,1.27c0.56,0.28,1.25,0.42,2.07,0.42
			c0.81,0,1.5-0.14,2.06-0.42c0.56-0.28,1.02-0.7,1.38-1.27s0.61-1.28,0.76-2.13s0.23-1.84,0.23-2.98c0-0.87-0.06-1.72-0.17-2.54
			c-0.11-0.82-0.33-1.54-0.66-2.19c-0.32-0.64-0.77-1.15-1.35-1.53c-0.58-0.38-1.33-0.57-2.25-0.57s-1.68,0.19-2.25,0.57
			s-1.03,0.89-1.35,1.53c-0.32,0.64-0.54,1.37-0.66,2.19C305.4,182.26,305.34,183.11,305.34,183.98z"/>
		<path d="M318.07,190.5h2.11v-13h-2.11v-0.27h4.07l6.42,10.36h0.04V177.5h-2.11v-0.27h4.5v0.27h-2.11v13.53h-0.38l-8-12.75h-0.04
			v12.22h2.11v0.27h-4.5V190.5z"/>
		<path d="M346.1,185.92h-1.52v4.31h-0.23c-0.14-0.14-0.25-0.23-0.34-0.29c-0.09-0.05-0.23-0.08-0.42-0.08
			c-0.23,0-0.46,0.06-0.69,0.18c-0.23,0.12-0.51,0.26-0.82,0.41c-0.31,0.15-0.67,0.29-1.09,0.41c-0.42,0.12-0.92,0.18-1.52,0.18
			c-0.9,0-1.7-0.15-2.39-0.45c-0.7-0.3-1.37-0.77-2.01-1.42c-0.63-0.63-1.16-1.38-1.58-2.24c-0.42-0.86-0.63-1.83-0.63-2.91
			c0-0.72,0.08-1.37,0.25-1.95c0.16-0.58,0.36-1.08,0.6-1.51c0.23-0.43,0.48-0.79,0.72-1.08c0.25-0.29,0.45-0.52,0.62-0.68
			c0.57-0.57,1.22-1.03,1.96-1.39c0.73-0.35,1.57-0.53,2.51-0.53c0.48,0,0.88,0.04,1.19,0.11s0.58,0.16,0.81,0.26
			c0.23,0.09,0.43,0.18,0.62,0.26c0.18,0.08,0.39,0.11,0.62,0.11c0.25,0,0.43-0.04,0.54-0.1c0.11-0.07,0.21-0.17,0.31-0.29h0.28v3.8
			h-0.21c-0.05-0.33-0.15-0.72-0.29-1.16c-0.15-0.44-0.37-0.87-0.68-1.27s-0.72-0.75-1.23-1.03c-0.51-0.28-1.17-0.42-1.97-0.42
			c-0.95,0-1.71,0.2-2.29,0.6c-0.58,0.4-1.03,0.92-1.35,1.58c-0.32,0.65-0.54,1.39-0.65,2.21c-0.11,0.82-0.16,1.65-0.16,2.49
			c0,0.57,0.03,1.14,0.08,1.71c0.05,0.57,0.14,1.11,0.26,1.61c0.12,0.51,0.29,0.98,0.5,1.41s0.49,0.8,0.84,1.1
			c0.38,0.34,0.77,0.58,1.18,0.71c0.41,0.13,0.93,0.2,1.58,0.2c0.39,0,0.79-0.07,1.18-0.2s0.74-0.33,1.05-0.6
			c0.31-0.27,0.56-0.6,0.76-1.02c0.2-0.41,0.29-0.9,0.29-1.45v-1.6h-2.45v-0.27h5.79V185.92z"/>
		<path d="M153.23,208.5h2.11v-13h-2.11v-0.27h6.12v0.27h-2.11v13h3.38c1.11,0,1.99-0.35,2.62-1.04c0.63-0.7,1.1-1.65,1.39-2.85
			h0.21v4.16h-11.61V208.5z"/>
		<path d="M166.3,208.5h2.11v-13h-2.11v-0.27h6.12v0.27h-2.11v13h2.11v0.27h-6.12V208.5z"/>
		<path d="M173.62,208.5h2.11v-13h-2.11v-0.27h10.87v3.29h-0.21c-0.16-0.49-0.34-0.93-0.53-1.3c-0.19-0.37-0.42-0.69-0.68-0.95
			c-0.27-0.26-0.58-0.45-0.95-0.58c-0.37-0.13-0.81-0.19-1.33-0.19h-3.15v6.16h1.23c0.42,0,0.77-0.04,1.06-0.11s0.54-0.22,0.75-0.43
			s0.39-0.49,0.53-0.86c0.15-0.36,0.29-0.83,0.43-1.4h0.21v5.91h-0.21c-0.09-0.37-0.18-0.72-0.28-1.06c-0.1-0.34-0.23-0.65-0.4-0.91
			c-0.17-0.27-0.4-0.48-0.68-0.64s-0.66-0.24-1.11-0.24h-1.54v6.57h2.11v0.27h-6.12V208.5z"/>
		<path d="M186.29,208.5h2.11v-13h-2.11v-0.27h10.87v3.29h-0.21c-0.16-0.49-0.34-0.93-0.53-1.3c-0.19-0.37-0.42-0.69-0.68-0.95
			c-0.27-0.26-0.58-0.45-0.95-0.58c-0.37-0.13-0.81-0.19-1.33-0.19h-3.15v5.87h1.23c0.42,0,0.77-0.04,1.06-0.11s0.54-0.22,0.75-0.43
			s0.39-0.49,0.53-0.85c0.15-0.36,0.29-0.83,0.43-1.4h0.21v5.91h-0.21c-0.09-0.37-0.18-0.72-0.28-1.06s-0.23-0.65-0.4-0.91
			s-0.4-0.48-0.68-0.64c-0.29-0.16-0.66-0.24-1.11-0.24h-1.54v6.86h3.59c0.7,0,1.28-0.15,1.74-0.45c0.46-0.3,0.84-0.65,1.13-1.06
			c0.29-0.41,0.51-0.84,0.65-1.28c0.14-0.44,0.23-0.81,0.27-1.1h0.21v4.16h-11.59V208.5z"/>
		<path d="M201.28,196.2c-0.01-0.1-0.02-0.2-0.02-0.29c0-0.1,0-0.2,0-0.3c0-0.21,0.03-0.39,0.1-0.52c0.06-0.13,0.19-0.2,0.38-0.2
			s0.32,0.07,0.38,0.2c0.06,0.13,0.1,0.31,0.1,0.52c0,0.1,0,0.2,0,0.3c0,0.09-0.01,0.18-0.02,0.29l-0.29,4.18h-0.34L201.28,196.2z"
			/>
		<path d="M205.8,204.68h0.21c0.14,0.68,0.32,1.26,0.54,1.73c0.22,0.47,0.47,0.86,0.73,1.16c0.27,0.3,0.54,0.54,0.84,0.7
			c0.29,0.17,0.59,0.29,0.88,0.36c0.3,0.08,0.58,0.12,0.85,0.13s0.53,0.02,0.77,0.02c0.67,0,1.22-0.1,1.65-0.3
			c0.43-0.2,0.77-0.46,1.03-0.77c0.25-0.31,0.43-0.65,0.53-1.01s0.15-0.69,0.15-1c0-0.44-0.08-0.82-0.25-1.14
			c-0.17-0.32-0.37-0.59-0.63-0.81c-0.25-0.22-0.53-0.4-0.83-0.54c-0.3-0.14-0.58-0.25-0.85-0.32l-2.19-0.67
			c-1.03-0.32-1.8-0.73-2.33-1.25c-0.53-0.52-0.79-1.22-0.79-2.09c0-0.57,0.1-1.1,0.3-1.59c0.2-0.49,0.49-0.91,0.85-1.26
			c0.37-0.35,0.81-0.63,1.32-0.84c0.51-0.2,1.07-0.3,1.68-0.3c0.44,0,0.81,0.04,1.11,0.11c0.3,0.08,0.55,0.16,0.77,0.26
			c0.22,0.09,0.41,0.18,0.58,0.26c0.17,0.08,0.34,0.11,0.52,0.11c0.16,0,0.28-0.02,0.33-0.07c0.06-0.04,0.14-0.16,0.24-0.33h0.27
			v3.44h-0.23c-0.08-0.46-0.21-0.9-0.39-1.32c-0.18-0.42-0.42-0.8-0.71-1.12c-0.29-0.32-0.64-0.58-1.05-0.78s-0.89-0.29-1.43-0.29
			c-0.3,0-0.64,0.04-1.01,0.12s-0.71,0.22-1.03,0.43c-0.32,0.2-0.58,0.47-0.79,0.8s-0.31,0.75-0.31,1.25c0,0.41,0.08,0.75,0.25,1.04
			c0.16,0.29,0.38,0.53,0.64,0.72s0.55,0.36,0.87,0.49c0.32,0.13,0.65,0.25,0.98,0.35l2.3,0.72c0.24,0.08,0.54,0.18,0.91,0.3
			c0.37,0.13,0.72,0.32,1.07,0.57c0.35,0.25,0.65,0.59,0.89,1.01s0.37,0.95,0.37,1.6c0,0.6-0.11,1.16-0.33,1.7
			c-0.22,0.54-0.54,1.01-0.96,1.42c-0.42,0.41-0.92,0.74-1.52,0.99c-0.6,0.25-1.27,0.37-2.01,0.37c-0.27,0-0.5,0-0.7-0.01
			c-0.2-0.01-0.39-0.02-0.57-0.05c-0.18-0.03-0.35-0.05-0.53-0.08c-0.18-0.03-0.37-0.08-0.59-0.14c-0.25-0.08-0.53-0.16-0.82-0.27
			c-0.29-0.1-0.54-0.15-0.76-0.15c-0.19,0-0.32,0.04-0.39,0.11c-0.07,0.08-0.13,0.18-0.18,0.3h-0.29V204.68z"/>
		<path d="M222.9,208.5h2.11v-13h-2.11v-0.27h3.33c0.19,0,0.38,0,0.58-0.01c0.2-0.01,0.4-0.02,0.6-0.03c0.2,0,0.4,0,0.59-0.01
			c0.19-0.01,0.37-0.01,0.55-0.01c0.92,0,1.68,0.11,2.28,0.33c0.6,0.22,1.06,0.49,1.41,0.82c0.34,0.32,0.58,0.67,0.7,1.04
			c0.13,0.37,0.19,0.71,0.19,1.02c0,0.42-0.09,0.8-0.28,1.16c-0.18,0.35-0.43,0.67-0.74,0.93c-0.31,0.27-0.67,0.48-1.07,0.65
			c-0.41,0.16-0.83,0.27-1.27,0.32v0.04c0.46,0.04,0.92,0.14,1.4,0.29c0.47,0.16,0.91,0.38,1.29,0.67c0.39,0.29,0.7,0.64,0.94,1.05
			c0.24,0.42,0.36,0.9,0.36,1.44c0,0.57-0.11,1.09-0.32,1.57c-0.22,0.48-0.54,0.88-0.97,1.23c-0.43,0.34-0.98,0.61-1.63,0.81
			c-0.66,0.2-1.43,0.29-2.3,0.29c-0.18,0-0.35,0-0.52-0.01c-0.17-0.01-0.35-0.02-0.54-0.03s-0.39-0.02-0.59-0.03
			c-0.2-0.01-0.42-0.01-0.65-0.01h-3.33V208.5z M226.91,201.37h1.75c0.35,0,0.68-0.04,0.97-0.13c0.29-0.09,0.54-0.24,0.75-0.46
			s0.37-0.52,0.48-0.9c0.11-0.38,0.17-0.86,0.17-1.44c0-0.66-0.09-1.19-0.26-1.59c-0.17-0.4-0.39-0.7-0.67-0.9
			c-0.27-0.2-0.58-0.33-0.91-0.4c-0.34-0.06-0.67-0.1-1-0.1c-0.23,0-0.46,0-0.69,0.01c-0.23,0.01-0.43,0.02-0.6,0.05V201.37z
			 M226.91,208.5c0.15,0.01,0.32,0.03,0.5,0.05c0.18,0.02,0.45,0.03,0.79,0.03c0.6,0,1.1-0.06,1.53-0.17
			c0.42-0.11,0.77-0.31,1.04-0.6c0.27-0.28,0.47-0.66,0.6-1.13c0.13-0.47,0.19-1.06,0.19-1.77c0-1.01-0.22-1.81-0.65-2.39
			c-0.43-0.58-1.07-0.87-1.92-0.87h-2.09V208.5z"/>
		<path d="M236.3,201.98c0-1.01,0.2-1.95,0.6-2.81s0.91-1.61,1.54-2.24s1.33-1.13,2.12-1.49c0.79-0.36,1.57-0.54,2.36-0.54
			c0.84,0,1.65,0.18,2.44,0.54c0.79,0.36,1.5,0.86,2.12,1.49s1.12,1.38,1.49,2.24c0.37,0.86,0.56,1.8,0.56,2.81
			c0,0.89-0.17,1.75-0.51,2.6c-0.34,0.85-0.81,1.6-1.41,2.26c-0.6,0.66-1.3,1.19-2.1,1.6c-0.8,0.41-1.67,0.61-2.59,0.61
			c-0.95,0-1.83-0.2-2.64-0.59c-0.81-0.39-1.51-0.92-2.1-1.57s-1.05-1.41-1.38-2.26C236.46,203.78,236.3,202.89,236.3,201.98z
			 M238.48,201.98c0,1.14,0.08,2.13,0.23,2.98s0.41,1.56,0.76,2.13s0.81,0.99,1.37,1.27c0.56,0.28,1.25,0.42,2.07,0.42
			c0.81,0,1.5-0.14,2.06-0.42c0.56-0.28,1.02-0.7,1.38-1.27s0.61-1.28,0.76-2.13s0.23-1.84,0.23-2.98c0-0.87-0.06-1.72-0.17-2.54
			c-0.11-0.82-0.33-1.54-0.66-2.19c-0.32-0.64-0.77-1.15-1.35-1.53c-0.58-0.38-1.33-0.57-2.25-0.57s-1.68,0.19-2.25,0.57
			s-1.03,0.89-1.35,1.53c-0.32,0.64-0.54,1.37-0.66,2.19C238.54,200.26,238.48,201.11,238.48,201.98z"/>
		<path d="M251.21,195.23h6.12v0.27h-2.11v9.18c0,0.76,0.07,1.4,0.2,1.93c0.13,0.53,0.33,0.95,0.6,1.27
			c0.27,0.32,0.6,0.55,0.99,0.69c0.39,0.14,0.84,0.21,1.35,0.21c0.71,0,1.34-0.1,1.88-0.31s1.01-0.58,1.41-1.11
			c0.13-0.16,0.24-0.33,0.33-0.49c0.09-0.16,0.18-0.36,0.25-0.58c0.07-0.22,0.12-0.49,0.16-0.8c0.04-0.31,0.06-0.69,0.06-1.15v-8.83
			h-2.11v-0.27h4.5v0.27h-2.11v9.21c0,0.53-0.06,1.02-0.17,1.45c-0.11,0.44-0.35,0.89-0.7,1.36c-0.34,0.46-0.82,0.82-1.43,1.1
			c-0.61,0.28-1.41,0.42-2.41,0.42c-1.52,0-2.68-0.37-3.49-1.12s-1.21-1.89-1.21-3.44v-8.99h-2.11V195.23z"/>
		<path d="M265.8,208.5h2.11v-13h-2.11v-0.27h6.12v0.27h-2.11v13h3.38c1.11,0,1.99-0.35,2.62-1.04c0.63-0.7,1.1-1.65,1.39-2.85h0.21
			v4.16H265.8V208.5z"/>
		<path d="M278.82,208.5h2.11v-13h-2.11v-0.27h10.87v3.29h-0.21c-0.16-0.49-0.34-0.93-0.53-1.3c-0.19-0.37-0.42-0.69-0.68-0.95
			c-0.27-0.26-0.58-0.45-0.95-0.58c-0.37-0.13-0.81-0.19-1.33-0.19h-3.15v5.87h1.23c0.42,0,0.77-0.04,1.06-0.11s0.54-0.22,0.75-0.43
			s0.39-0.49,0.53-0.85c0.15-0.36,0.29-0.83,0.43-1.4h0.21v5.91h-0.21c-0.09-0.37-0.18-0.72-0.28-1.06s-0.23-0.65-0.4-0.91
			s-0.4-0.48-0.68-0.64c-0.29-0.16-0.66-0.24-1.11-0.24h-1.54v6.86h3.59c0.7,0,1.28-0.15,1.74-0.45c0.46-0.3,0.84-0.65,1.13-1.06
			c0.29-0.41,0.51-0.84,0.65-1.28c0.14-0.44,0.23-0.81,0.27-1.1h0.21v4.16h-11.59V208.5z"/>
		<path d="M291.4,195.23h5.87v0.27h-2.11l4.22,11.02l4.16-11.02h-2.07v-0.27h4.1v0.27h-1.71l-5.11,13.55h-0.48l-5.17-13.55h-1.71
			V195.23z"/>
		<path d="M303.21,208.5h1.67l5.13-13.6h0.46l5.17,13.6h1.69v0.27h-5.85v-0.27h2.11l-2-5.28h-4.41l-2,5.28h2.11v0.27h-4.08V208.5z
			 M309.39,197.42l-2.09,5.53h4.18L309.39,197.42z"/>
		<path d="M317.88,208.5h2.11v-13h-2.11v-0.27h3.61c0.15,0,0.3,0,0.46-0.01c0.15-0.01,0.3-0.02,0.46-0.03c0.15,0,0.3,0,0.46-0.01
			c0.15-0.01,0.3-0.01,0.46-0.01c0.75,0,1.41,0.04,1.98,0.12c0.57,0.08,1.1,0.32,1.6,0.71c0.44,0.34,0.76,0.73,0.94,1.16
			c0.18,0.43,0.28,0.84,0.28,1.22c0,0.19-0.04,0.43-0.1,0.73c-0.07,0.3-0.22,0.6-0.46,0.91s-0.57,0.6-1.02,0.85
			c-0.44,0.26-1.03,0.43-1.77,0.52v0.04c0.2,0.03,0.48,0.07,0.83,0.14c0.35,0.07,0.7,0.19,1.06,0.35c0.36,0.17,0.69,0.38,1,0.66
			c0.3,0.27,0.52,0.62,0.65,1.05c0.08,0.25,0.13,0.54,0.16,0.87c0.03,0.32,0.06,0.66,0.08,1c0.02,0.34,0.04,0.67,0.06,0.99
			s0.05,0.58,0.1,0.8c0.08,0.33,0.2,0.63,0.36,0.89c0.16,0.27,0.43,0.4,0.8,0.4c0.16,0,0.34-0.03,0.51-0.09
			c0.18-0.06,0.34-0.17,0.47-0.3l0.17,0.21c-0.06,0.05-0.14,0.1-0.22,0.16c-0.08,0.06-0.19,0.11-0.31,0.16
			c-0.13,0.05-0.28,0.09-0.47,0.12c-0.18,0.03-0.41,0.05-0.67,0.05c-0.51,0-0.93-0.06-1.26-0.19c-0.34-0.13-0.6-0.31-0.81-0.56
			s-0.35-0.55-0.45-0.91c-0.09-0.36-0.16-0.78-0.2-1.26l-0.13-1.73c-0.05-0.63-0.18-1.13-0.38-1.48s-0.44-0.61-0.71-0.78
			c-0.27-0.16-0.55-0.26-0.85-0.29c-0.29-0.03-0.54-0.05-0.76-0.05h-1.9v6.86H324v0.27h-6.12V208.5z M321.89,201.37h1.75
			c0.35,0,0.68-0.04,0.97-0.13c0.29-0.09,0.54-0.24,0.75-0.46s0.37-0.52,0.48-0.9c0.11-0.38,0.17-0.86,0.17-1.44
			c0-0.66-0.09-1.19-0.26-1.59c-0.17-0.4-0.39-0.7-0.67-0.9c-0.27-0.2-0.58-0.33-0.91-0.4c-0.34-0.06-0.67-0.1-1-0.1
			c-0.23,0-0.46,0-0.69,0.01c-0.23,0.01-0.43,0.02-0.6,0.05V201.37z"/>
		<path d="M331.6,208.5h2.11v-13h-2.11v-0.27h3.53c0.18,0,0.35,0,0.53-0.01c0.18-0.01,0.35-0.02,0.53-0.03c0.18,0,0.35,0,0.53-0.01
			c0.18-0.01,0.35-0.01,0.53-0.01c0.38,0,0.72,0.01,1.02,0.02c0.3,0.01,0.58,0.04,0.84,0.07c0.26,0.03,0.51,0.08,0.74,0.13
			c0.23,0.06,0.48,0.13,0.75,0.22c0.77,0.25,1.44,0.59,2,1.02c0.56,0.42,1.03,0.92,1.39,1.47c0.36,0.56,0.63,1.17,0.8,1.82
			c0.17,0.66,0.26,1.35,0.26,2.07c0,0.84-0.1,1.59-0.3,2.25s-0.48,1.25-0.84,1.77c-0.35,0.51-0.77,0.96-1.24,1.33
			c-0.48,0.37-0.99,0.67-1.53,0.9c-0.3,0.14-0.59,0.25-0.86,0.32c-0.27,0.08-0.55,0.13-0.84,0.17c-0.29,0.04-0.6,0.06-0.94,0.08
			c-0.34,0.01-0.73,0.02-1.18,0.02c-0.19,0-0.39,0-0.61-0.01c-0.22-0.01-0.43-0.02-0.65-0.03c-0.22-0.01-0.43-0.02-0.64-0.03
			c-0.21-0.01-0.41-0.01-0.6-0.01h-3.23V208.5z M335.61,208.5c0.22,0.03,0.47,0.04,0.75,0.06c0.28,0.01,0.6,0.02,0.94,0.02
			c0.43,0,0.86-0.02,1.28-0.07c0.42-0.04,0.83-0.14,1.22-0.28c0.39-0.15,0.75-0.35,1.08-0.63c0.34-0.27,0.64-0.63,0.9-1.07
			c0.41-0.68,0.69-1.38,0.85-2.1c0.16-0.71,0.24-1.5,0.24-2.35c0-1-0.09-1.91-0.29-2.73c-0.19-0.82-0.5-1.51-0.94-2.09
			c-0.44-0.58-1.02-1.02-1.74-1.34s-1.62-0.48-2.68-0.48c-0.32,0-0.6,0.01-0.86,0.02c-0.26,0.01-0.51,0.03-0.75,0.04V208.5z"/>
	</g>
	<path class="st1" d="M92.8,199.98c48.13-17.77,111.46-40.58,158.69-58.72c2.32-0.9,6.89-2.82,9.15-3.85
		c16.21-7.64,31.81-9.28,49.42-6.57c6.34,0.91,12.74,2.95,18.73,0.39c5.7-2.33,8.92-8.72,8.73-14.74
		c-0.03-6.41-7.15-10.24-12.87-10.64c-4.93-0.55-8.88,3.4-10.3,7.86c-1.85,5.37,1.25,9.73,6.86,10.14
		c-6.07-0.03-9.38-4.59-7.76-10.4c1.28-5.1,5.72-9.68,11.25-9.35c5.28,0.15,10.63,2.55,13.72,6.97c2.85,4.7,1.76,10.89-0.56,15.62
		c-4.52,8.81-14.64,10.22-23.4,8.28c-14.36-2.54-29.51-2.99-43.49,1.59C212.05,158.98,152.37,179.46,92.8,199.98L92.8,199.98z"/>
	<g>
		<path class="st1" d="M343.97,131.59c3.2-3.36,6.34-6.76,9.63-10.03c0.54-0.54,1.71-0.55,2.6-0.81c0.2,0.88,0.87,2.03,0.5,2.6
			c-1.19,1.83-2.45,3.84-4.26,5.05c-2.42,1.62-5.38,2.55-8.1,3.78C344.21,131.98,344.09,131.79,343.97,131.59z"/>
		<path class="st1" d="M338.93,137.68c2.86-2.32,9.18-3.23,12.89-1.39c1.19,0.59,2.11,1.69,3,2.68c0.25,0.28,0.16,1.12-0.12,1.45
			c-0.29,0.34-1.07,0.61-1.53,0.51C348.31,139.86,343.48,138.72,338.93,137.68z"/>
		<path class="st1" d="M331.77,141.75c2.51-1.84,5.27-2.12,8.17-1.14c2.81,0.95,4.93,2.64,5.64,5.44c0.14,0.56-0.16,1.62-0.6,1.82
			c-0.58,0.27-1.63,0.13-2.23-0.21c-0.94-0.53-1.67-1.38-2.49-2.08C337.86,143.54,335.29,141.82,331.77,141.75z"/>
	</g>
	<path class="st1" d="M190.39,83.04c17.17,1.79,75.65,9.6,80.76-12.16c0.68-3.4,1.14-10.19-3.7-10.34c-3.25-0.01-6.1,3.66-4.35,6.82
		c0.52,1.05,1.33,1.99,2.26,2.81c-1.06-0.63-2.09-1.39-2.84-2.46c-5.46-8.82,13.05-16.03,11.72,1.79
		C271.12,97.38,209.21,87.4,190.39,83.04L190.39,83.04z"/>
	<g>
		<g>
			<path d="M42.56,43.35h2.55V27.62h-2.55v-0.32h4.32c0.21,0,0.43,0,0.64-0.01c0.21-0.01,0.43-0.02,0.64-0.03
				c0.21,0,0.43,0,0.63-0.01s0.42-0.01,0.63-0.01c0.87,0,1.68,0.1,2.43,0.31c0.74,0.21,1.39,0.5,1.93,0.89
				c0.54,0.38,0.97,0.84,1.28,1.38c0.31,0.54,0.46,1.13,0.46,1.79c0,0.69-0.18,1.3-0.53,1.84c-0.35,0.54-0.82,0.99-1.4,1.36
				c-0.58,0.37-1.26,0.65-2.04,0.85c-0.77,0.2-1.58,0.3-2.43,0.3c-0.21,0-0.49-0.02-0.83-0.06c-0.34-0.04-0.64-0.08-0.9-0.13v7.59
				h2.55v0.32h-7.41V43.35z M47.41,35.44c0.31,0.06,0.63,0.11,0.97,0.14c0.34,0.03,0.64,0.05,0.9,0.05c1.13,0,2.02-0.33,2.66-1
				s0.95-1.67,0.95-3.02c0-0.78-0.08-1.43-0.23-1.96c-0.15-0.52-0.4-0.94-0.72-1.25c-0.33-0.31-0.76-0.53-1.29-0.66
				c-0.53-0.12-1.16-0.18-1.9-0.18c-0.29,0-0.56,0.01-0.79,0.02c-0.24,0.01-0.42,0.03-0.54,0.05V35.44z"/>
			<path d="M59.19,43.35h2.55V27.62h-2.55v-0.32h13.16v3.98h-0.25c-0.2-0.6-0.41-1.12-0.64-1.58c-0.23-0.45-0.51-0.83-0.83-1.15
				s-0.71-0.55-1.15-0.7s-0.98-0.23-1.61-0.23h-3.82v7.11h1.5c0.51,0,0.94-0.05,1.29-0.14c0.35-0.09,0.66-0.26,0.91-0.52
				c0.25-0.25,0.47-0.6,0.64-1.04c0.18-0.44,0.35-1,0.52-1.69h0.25v7.15H68.9c-0.11-0.44-0.22-0.87-0.33-1.29s-0.28-0.78-0.48-1.1
				c-0.21-0.32-0.48-0.58-0.83-0.77c-0.34-0.19-0.79-0.29-1.35-0.29h-1.86v8.3h4.35c0.84,0,1.54-0.18,2.1-0.54
				c0.56-0.36,1.02-0.79,1.37-1.29c0.35-0.5,0.61-1.02,0.78-1.55c0.17-0.54,0.28-0.98,0.32-1.33h0.25v5.04H59.19V43.35z"/>
			<path d="M80.58,43.35h2.55V27.62H81.8c-0.31,0-0.65,0.03-1.04,0.08c-0.38,0.05-0.77,0.2-1.16,0.45
				c-0.39,0.25-0.77,0.63-1.13,1.16c-0.36,0.53-0.67,1.26-0.93,2.2h-0.25v-4.21h13.98v4.21h-0.25c-0.26-0.94-0.57-1.67-0.93-2.2
				c-0.36-0.53-0.74-0.92-1.13-1.16c-0.39-0.25-0.78-0.39-1.16-0.45c-0.38-0.05-0.73-0.08-1.04-0.08h-1.33v15.73h2.55v0.32h-7.41
				V43.35z"/>
			<path d="M94.56,43.35h2.55V27.62h-2.55v-0.32h13.16v3.98h-0.25c-0.2-0.6-0.41-1.12-0.64-1.58c-0.23-0.45-0.51-0.83-0.83-1.15
				s-0.71-0.55-1.15-0.7c-0.44-0.15-0.98-0.23-1.61-0.23h-3.82v7.11h1.5c0.51,0,0.93-0.05,1.29-0.14c0.35-0.09,0.66-0.26,0.91-0.52
				s0.47-0.6,0.64-1.04c0.18-0.44,0.35-1,0.52-1.69h0.25v7.15h-0.25c-0.11-0.44-0.22-0.87-0.33-1.29s-0.28-0.78-0.48-1.1
				c-0.21-0.32-0.48-0.58-0.83-0.77c-0.35-0.19-0.79-0.29-1.35-0.29h-1.86v8.3h4.35c0.84,0,1.54-0.18,2.1-0.54s1.02-0.79,1.37-1.29
				c0.35-0.5,0.61-1.02,0.78-1.55c0.17-0.54,0.28-0.98,0.32-1.33h0.25v5.04H94.56V43.35z"/>
			<path d="M112.48,43.35h2.55V27.62h-2.55v-0.32h4.37c0.18,0,0.37,0,0.55-0.01c0.18-0.01,0.37-0.02,0.55-0.03
				c0.18,0,0.37,0,0.55-0.01c0.18-0.01,0.37-0.01,0.55-0.01c0.91,0,1.7,0.05,2.39,0.15c0.69,0.1,1.33,0.39,1.93,0.86
				c0.54,0.41,0.92,0.88,1.14,1.4c0.22,0.52,0.33,1.01,0.33,1.47c0,0.23-0.04,0.53-0.13,0.88c-0.08,0.36-0.27,0.73-0.55,1.1
				c-0.28,0.38-0.69,0.72-1.23,1.04c-0.54,0.31-1.25,0.53-2.14,0.63v0.05c0.25,0.03,0.58,0.09,1,0.17c0.42,0.08,0.85,0.23,1.29,0.43
				c0.44,0.2,0.84,0.46,1.21,0.79c0.37,0.33,0.63,0.76,0.78,1.28c0.09,0.31,0.16,0.66,0.2,1.05c0.04,0.39,0.07,0.79,0.09,1.21
				c0.02,0.41,0.05,0.81,0.07,1.2c0.02,0.38,0.07,0.71,0.13,0.97c0.09,0.4,0.24,0.76,0.44,1.08c0.2,0.32,0.52,0.48,0.97,0.48
				c0.2,0,0.41-0.04,0.62-0.12c0.21-0.08,0.41-0.2,0.58-0.37l0.21,0.25c-0.08,0.06-0.17,0.13-0.26,0.2c-0.1,0.07-0.23,0.13-0.38,0.2
				c-0.15,0.06-0.34,0.11-0.56,0.15c-0.22,0.04-0.5,0.06-0.82,0.06c-0.61,0-1.12-0.08-1.53-0.23c-0.41-0.15-0.73-0.38-0.98-0.68
				c-0.25-0.3-0.42-0.67-0.54-1.1c-0.12-0.44-0.2-0.95-0.24-1.53l-0.16-2.09c-0.06-0.77-0.21-1.37-0.46-1.79
				c-0.25-0.43-0.53-0.74-0.86-0.94c-0.33-0.2-0.67-0.32-1.02-0.36s-0.66-0.06-0.92-0.06h-2.3v8.3h2.55v0.32h-7.41V43.35z
				 M117.33,34.72h2.12c0.43,0,0.82-0.05,1.17-0.16c0.35-0.11,0.66-0.29,0.91-0.56c0.25-0.27,0.45-0.63,0.59-1.09
				s0.21-1.04,0.21-1.75c0-0.8-0.1-1.44-0.31-1.92c-0.21-0.48-0.48-0.85-0.8-1.09c-0.33-0.25-0.7-0.41-1.1-0.48
				s-0.81-0.12-1.21-0.12c-0.28,0-0.56,0-0.84,0.01c-0.28,0.01-0.53,0.03-0.72,0.06V34.72z"/>
			<path d="M138.93,43.35h2.55V27.62h-2.55v-0.32h7.22v0.32h-2.37v7.31h0.23l6.95-7.31h-2.39v-0.32h4.76v0.32h-1.91l-5.84,6.19
				l8.35,9.54h1.52v0.32h-6.65v-0.32h2.07l-6.9-8.1h-0.18v8.1h2.37v0.32h-7.22V43.35z"/>
			<path d="M156.85,35.46c0-1.23,0.24-2.36,0.72-3.4c0.48-1.04,1.1-1.95,1.86-2.71s1.61-1.37,2.56-1.81
				c0.95-0.44,1.9-0.66,2.85-0.66c1.01,0,2,0.22,2.96,0.66c0.96,0.44,1.81,1.04,2.56,1.81s1.35,1.67,1.81,2.71
				c0.45,1.04,0.68,2.18,0.68,3.4c0,1.07-0.21,2.12-0.62,3.15s-0.98,1.94-1.7,2.74c-0.72,0.8-1.57,1.44-2.54,1.93
				c-0.97,0.49-2.02,0.74-3.14,0.74c-1.15,0-2.22-0.24-3.2-0.71c-0.98-0.47-1.83-1.11-2.54-1.9c-0.71-0.79-1.27-1.7-1.67-2.74
				C157.04,37.63,156.85,36.56,156.85,35.46z M159.49,35.46c0,1.38,0.09,2.58,0.28,3.61c0.18,1.03,0.49,1.89,0.92,2.58
				c0.43,0.69,0.98,1.2,1.66,1.54c0.67,0.34,1.51,0.51,2.51,0.51c0.98,0,1.81-0.17,2.5-0.51c0.68-0.34,1.24-0.85,1.67-1.54
				c0.43-0.69,0.74-1.55,0.92-2.58c0.18-1.03,0.28-2.23,0.28-3.61c0-1.06-0.07-2.08-0.21-3.07c-0.14-0.99-0.4-1.87-0.79-2.65
				c-0.39-0.77-0.94-1.39-1.63-1.85c-0.7-0.46-1.61-0.69-2.73-0.69c-1.12,0-2.03,0.23-2.73,0.69c-0.7,0.46-1.24,1.08-1.63,1.85
				c-0.39,0.77-0.66,1.66-0.79,2.65C159.56,33.38,159.49,34.4,159.49,35.46z"/>
			<path d="M176.83,43.35h2.55V27.62h-2.55v-0.32h4.32c0.21,0,0.43,0,0.64-0.01c0.21-0.01,0.43-0.02,0.64-0.03
				c0.21,0,0.43,0,0.63-0.01s0.42-0.01,0.63-0.01c0.87,0,1.68,0.1,2.43,0.31c0.74,0.21,1.39,0.5,1.93,0.89
				c0.54,0.38,0.97,0.84,1.28,1.38c0.31,0.54,0.46,1.13,0.46,1.79c0,0.69-0.18,1.3-0.53,1.84c-0.35,0.54-0.82,0.99-1.4,1.36
				c-0.58,0.37-1.26,0.65-2.04,0.85c-0.77,0.2-1.58,0.3-2.43,0.3c-0.21,0-0.49-0.02-0.83-0.06c-0.34-0.04-0.64-0.08-0.9-0.13v7.59
				h2.55v0.32h-7.41V43.35z M181.69,35.44c0.31,0.06,0.63,0.11,0.97,0.14c0.34,0.03,0.64,0.05,0.9,0.05c1.13,0,2.02-0.33,2.66-1
				c0.64-0.67,0.95-1.67,0.95-3.02c0-0.78-0.08-1.43-0.23-1.96c-0.15-0.52-0.4-0.94-0.72-1.25c-0.33-0.31-0.76-0.53-1.29-0.66
				c-0.53-0.12-1.16-0.18-1.9-0.18c-0.29,0-0.56,0.01-0.79,0.02c-0.24,0.01-0.42,0.03-0.54,0.05V35.44z"/>
			<path d="M193,43.35h2.55V27.62H193v-0.32h13.16v3.98h-0.25c-0.2-0.6-0.41-1.12-0.64-1.58c-0.23-0.45-0.51-0.83-0.83-1.15
				s-0.71-0.55-1.15-0.7c-0.44-0.15-0.98-0.23-1.61-0.23h-3.82v7.11h1.5c0.51,0,0.93-0.05,1.29-0.14c0.35-0.09,0.66-0.26,0.91-0.52
				s0.47-0.6,0.64-1.04c0.18-0.44,0.35-1,0.52-1.69h0.25v7.15h-0.25c-0.11-0.44-0.22-0.87-0.33-1.29s-0.28-0.78-0.48-1.1
				c-0.21-0.32-0.48-0.58-0.83-0.77c-0.35-0.19-0.79-0.29-1.35-0.29h-1.86v8.3h4.35c0.84,0,1.54-0.18,2.1-0.54s1.02-0.79,1.37-1.29
				c0.35-0.5,0.61-1.02,0.78-1.55c0.17-0.54,0.28-0.98,0.32-1.33h0.25v5.04H193V43.35z"/>
			<path d="M210.92,43.35h2.55V27.62h-2.55v-0.32h4.37c0.18,0,0.37,0,0.55-0.01c0.18-0.01,0.37-0.02,0.55-0.03
				c0.18,0,0.37,0,0.55-0.01c0.18-0.01,0.37-0.01,0.55-0.01c0.91,0,1.7,0.05,2.39,0.15c0.69,0.1,1.33,0.39,1.93,0.86
				c0.54,0.41,0.92,0.88,1.14,1.4c0.22,0.52,0.33,1.01,0.33,1.47c0,0.23-0.04,0.53-0.13,0.88c-0.08,0.36-0.27,0.73-0.55,1.1
				c-0.28,0.38-0.69,0.72-1.23,1.04c-0.54,0.31-1.25,0.53-2.14,0.63v0.05c0.25,0.03,0.58,0.09,1,0.17c0.42,0.08,0.85,0.23,1.29,0.43
				c0.44,0.2,0.84,0.46,1.21,0.79c0.37,0.33,0.63,0.76,0.78,1.28c0.09,0.31,0.16,0.66,0.2,1.05c0.04,0.39,0.07,0.79,0.09,1.21
				c0.02,0.41,0.05,0.81,0.07,1.2c0.02,0.38,0.07,0.71,0.13,0.97c0.09,0.4,0.24,0.76,0.44,1.08c0.2,0.32,0.52,0.48,0.97,0.48
				c0.2,0,0.41-0.04,0.62-0.12c0.21-0.08,0.41-0.2,0.58-0.37l0.21,0.25c-0.08,0.06-0.17,0.13-0.26,0.2c-0.1,0.07-0.23,0.13-0.38,0.2
				c-0.15,0.06-0.34,0.11-0.56,0.15c-0.22,0.04-0.5,0.06-0.82,0.06c-0.61,0-1.12-0.08-1.53-0.23c-0.41-0.15-0.73-0.38-0.98-0.68
				c-0.25-0.3-0.42-0.67-0.54-1.1c-0.12-0.44-0.2-0.95-0.24-1.53l-0.16-2.09c-0.06-0.77-0.21-1.37-0.46-1.79
				c-0.25-0.43-0.53-0.74-0.86-0.94c-0.33-0.2-0.67-0.32-1.02-0.36s-0.66-0.06-0.92-0.06h-2.3v8.3h2.55v0.32h-7.41V43.35z
				 M215.77,34.72h2.12c0.43,0,0.82-0.05,1.17-0.16c0.35-0.11,0.66-0.29,0.91-0.56c0.25-0.27,0.45-0.63,0.59-1.09
				s0.21-1.04,0.21-1.75c0-0.8-0.1-1.44-0.31-1.92c-0.21-0.48-0.48-0.85-0.8-1.09c-0.33-0.25-0.7-0.41-1.1-0.48
				s-0.81-0.12-1.21-0.12c-0.28,0-0.56,0-0.84,0.01c-0.28,0.01-0.53,0.03-0.72,0.06V34.72z"/>
		</g>
	</g>
	<path class="st2" d="M104.93,122.28l0.31-12.23c-0.77,1.74-1.48,3.11-2.15,4.12s-1.71,2.33-3.14,3.95
		C101.73,118.49,103.39,119.88,104.93,122.28z"/>
	<path class="st2" d="M111.05,59.35c1.8,0.87,3.21,1.94,4.25,3.22c1.03,1.29,2.12,3.39,3.27,6.32l-0.72-12.2L111.05,59.35z"/>
	<path class="st2" d="M83.05,70.6l-3.08,11.01c0,0-0.27-1.12-1.07-2.43c0.06,0.12,0.12,0.25,0.16,0.36
		c0.26,0.77,0.37,2.17,0.32,4.19c0,1.06-0.01,2.1-0.03,3.11l-0.04,1.61l-2.26,88.64L77,178.7c-0.03,1.01-0.07,2.06-0.13,3.15
		c-0.05,1.96-0.23,3.45-0.54,4.48c-0.31,1.03-1.04,2.55-2.19,4.56l-1.92,3.47l13.88-5.42l-1.78-2.03c-1.04-1.16-1.7-2.15-1.97-2.98
		c-0.28-0.83-0.39-2.19-0.34-4.09c0.03-1.01,0.04-1.69,0.03-2.03c-0.01-0.34,0-0.7,0-1.08l0.04-1.61l2.26-88.64l0.04-1.61
		c0.01-0.38,0.03-0.76,0.05-1.15c0.03-0.38,0.05-1.05,0.07-2c0.05-1.9,0.25-3.43,0.61-4.6c0.36-1.17,1.06-2.65,2.11-4.44l2.81-5.04
		l-9.34,3.64C82.1,70.87,83.05,70.6,83.05,70.6z"/>
	<path class="st1" d="M121.45,51.82L74.8,70.02c-3.4,0.85-6.64,2.02-9.77,3.4c-9.4,4.39-20.69,11.3-23.28,22.13
		c-1.09,5.18,1.12,13.01,7.13,13.69C44.1,120,35.51,130.69,25.36,131.69c-7.92,0.92-14.23-5.74-11.33-13.54
		c1.21-3.56,4.59-6.12,8.3-4.13c4.45,2.12,2.81,7.16-1.7,7.77c5.38-0.15,7.05-6.15,2.27-8.83c-4.42-2.83-9.14-0.04-10.93,4.35
		c-3.06,6.42,0.25,14.38,7.07,16.56c14.64,4.47,26.82-10.31,31.53-24.68c5.07-0.88,9.37-6.12,9.45-11.13
		c0.1-3.13-2.99-5.48-5.65-3.3c-0.69,0.59-1.11,1.42-1.26,2.27c0.22-0.84,0.7-1.61,1.39-2.11c1.33-1.03,3.44-0.72,4.21,0.8
		c1.12,2.25,0.09,4.95-1.26,6.9c-1.31,2-3.8,4.02-6.27,4.58c1.02-3.62,1.54-7.15,1.49-10.28c-0.47,3.16-1.49,6.77-2.97,10.43
		c-1.39-0.05-2.69-0.66-3.67-2.15c-1.65-2.54-2.13-6-1.28-8.94c0.83-3,2.8-5.66,5.14-7.92c6.36-5.89,12.27-9.27,20.7-11.32
		c1.82,0.36,4.3,1.11,4.95,2.39c0.81,1.5,1.34,3.48,1.59,5.95s0.3,6.58,0.16,12.33l-1.82,71.58c-0.23,9.04-0.99,15.31-2.27,18.81
		c-1.66,4.72-4.21,8.31-7.66,10.78l-0.08,2.94l31.56-12.31l0.08-2.94c-3.74,0.4-6.52-0.74-8.34-3.41c-1.03-1.54-1.7-3.55-2.01-6.02
		c-0.31-2.47-0.4-6.52-0.26-12.15l1.03-40.29l4.66-1.82c3.45-1.35,6.1-1.65,7.95-0.9c1.85,0.75,3.26,2.73,4.25,5.95
		c0.98,3.21,1.7,8.27,2.15,15.16l1.43-0.56l1.29-50.53l-1.43,0.56c-1.02,8.16-2.66,14.17-4.93,18.02
		c-2.26,3.86-5.79,6.72-10.57,8.58l-4.71,1.84l0.82-32.23c0.19-7.65,1.19-13.34,3-17.08c1.8-3.74,4.78-6.42,8.93-8.04l1.33-0.52
		c3.52-1.37,6.53-1.44,9.04-0.2c2.51,1.24,4.59,3.83,6.25,7.75s2.98,9.35,3.96,16.29l1.47-0.57L121.45,51.82z M103.09,114.18
		c0.67-1.01,1.39-2.39,2.15-4.12l-0.31,12.23c-1.54-2.4-3.2-3.79-4.98-4.16C101.38,116.5,102.42,115.19,103.09,114.18z M87.23,72.68
		c-1.05,1.79-1.75,3.27-2.11,4.44l-0.61,4.6c-0.02,0.95-0.05,1.62-0.07,2c-0.03,0.39-0.04,0.77-0.05,1.15l-0.04,1.61l-2.26,88.64
		l-0.04,1.61c-0.01,0.38-0.01,0.74,0,1.08c0.01,0.34,0,1.02-0.03,2.03c-0.05,1.9,0.07,3.26,0.34,4.09c0.28,0.83,0.93,1.83,1.97,2.98
		l1.78,2.03l-13.88,5.42l1.92-3.47c1.15-2.01,1.88-3.53,2.19-4.56c0.31-1.03,0.49-2.52,0.54-4.48c0.06-1.09,0.1-2.13,0.13-3.15
		l0.04-1.61l2.26-88.64l0.04-1.61c0.03-1.01,0.04-2.05,0.03-3.11c0.05-2.02-0.05-3.42-0.32-4.19c-0.04-0.11-0.1-0.24-0.16-0.36
		c-1.28-2.1-3.92-4.71-9.06-4.17c-2.35,0.25,6.47-2.42,10.86-3.71l9.34-3.64L87.23,72.68z M115.3,62.58
		c-1.04-1.29-2.45-2.36-4.25-3.22l6.8-2.65l0.72,12.2C117.42,65.97,116.33,63.86,115.3,62.58z"/>
</g>
</svg>
